<?xml version="1.0" encoding="utf-8" standalone="no"?>
<!DOCTYPE svg PUBLIC "-//W3C//DTD SVG 1.1//EN"
  "http://www.w3.org/Graphics/SVG/1.1/DTD/svg11.dtd">
<svg xmlns:xlink="http://www.w3.org/1999/xlink" width="1147.578125pt" height="340.642975pt" viewBox="0 0 1147.578125 340.642975" xmlns="http://www.w3.org/2000/svg" version="1.1">
 <metadata>
  <rdf:RDF xmlns:dc="http://purl.org/dc/elements/1.1/" xmlns:cc="http://creativecommons.org/ns#" xmlns:rdf="http://www.w3.org/1999/02/22-rdf-syntax-ns#">
   <cc:Work>
    <dc:type rdf:resource="http://purl.org/dc/dcmitype/StillImage"/>
    <dc:date>2023-04-27T23:05:16.218584</dc:date>
    <dc:format>image/svg+xml</dc:format>
    <dc:creator>
     <cc:Agent>
      <dc:title>Matplotlib v3.5.2, https://matplotlib.org/</dc:title>
     </cc:Agent>
    </dc:creator>
   </cc:Work>
  </rdf:RDF>
 </metadata>
 <defs>
  <style type="text/css">*{stroke-linejoin: round; stroke-linecap: butt}</style>
 </defs>
 <g id="figure_1">
  <g id="patch_1">
   <path d="M 0 340.642975 
L 1147.578125 340.642975 
L 1147.578125 0 
L 0 0 
z
" style="fill: #ffffff"/>
  </g>
  <g id="axes_1">
   <g id="patch_2">
    <path d="M 24.378125 299.518125 
L 266.986821 299.518125 
L 266.986821 22.318125 
L 24.378125 22.318125 
z
" style="fill: #ffffff"/>
   </g>
   <g id="matplotlib.axis_1">
    <g id="xtick_1">
     <g id="line2d_1">
      <defs>
       <path id="md7265343bc" d="M 0 0 
L 0 3.5 
" style="stroke: #000000; stroke-width: 0.8"/>
      </defs>
      <g>
       <use xlink:href="#md7265343bc" x="35.405793" y="299.518125" style="stroke: #000000; stroke-width: 0.8"/>
      </g>
     </g>
     <g id="text_1">
      <!-- 0 -->
      <g transform="translate(37.320799 310.9337)rotate(-90)scale(0.0694 -0.0694)">
       <defs>
        <path id="DejaVuSans-30" d="M 2034 4250 
Q 1547 4250 1301 3770 
Q 1056 3291 1056 2328 
Q 1056 1369 1301 889 
Q 1547 409 2034 409 
Q 2525 409 2770 889 
Q 3016 1369 3016 2328 
Q 3016 3291 2770 3770 
Q 2525 4250 2034 4250 
z
M 2034 4750 
Q 2819 4750 3233 4129 
Q 3647 3509 3647 2328 
Q 3647 1150 3233 529 
Q 2819 -91 2034 -91 
Q 1250 -91 836 529 
Q 422 1150 422 2328 
Q 422 3509 836 4129 
Q 1250 4750 2034 4750 
z
" transform="scale(0.015625)"/>
       </defs>
       <use xlink:href="#DejaVuSans-30"/>
      </g>
     </g>
    </g>
    <g id="xtick_2">
     <g id="line2d_2">
      <g>
       <use xlink:href="#md7265343bc" x="89.199295" y="299.518125" style="stroke: #000000; stroke-width: 0.8"/>
      </g>
     </g>
     <g id="text_2">
      <!-- 50 -->
      <g transform="translate(91.114302 315.349275)rotate(-90)scale(0.0694 -0.0694)">
       <defs>
        <path id="DejaVuSans-35" d="M 691 4666 
L 3169 4666 
L 3169 4134 
L 1269 4134 
L 1269 2991 
Q 1406 3038 1543 3061 
Q 1681 3084 1819 3084 
Q 2600 3084 3056 2656 
Q 3513 2228 3513 1497 
Q 3513 744 3044 326 
Q 2575 -91 1722 -91 
Q 1428 -91 1123 -41 
Q 819 9 494 109 
L 494 744 
Q 775 591 1075 516 
Q 1375 441 1709 441 
Q 2250 441 2565 725 
Q 2881 1009 2881 1497 
Q 2881 1984 2565 2268 
Q 2250 2553 1709 2553 
Q 1456 2553 1204 2497 
Q 953 2441 691 2322 
L 691 4666 
z
" transform="scale(0.015625)"/>
       </defs>
       <use xlink:href="#DejaVuSans-35"/>
       <use xlink:href="#DejaVuSans-30" x="63.623047"/>
      </g>
     </g>
    </g>
    <g id="xtick_3">
     <g id="line2d_3">
      <g>
       <use xlink:href="#md7265343bc" x="142.992798" y="299.518125" style="stroke: #000000; stroke-width: 0.8"/>
      </g>
     </g>
     <g id="text_3">
      <!-- 100 -->
      <g transform="translate(144.907804 319.76485)rotate(-90)scale(0.0694 -0.0694)">
       <defs>
        <path id="DejaVuSans-31" d="M 794 531 
L 1825 531 
L 1825 4091 
L 703 3866 
L 703 4441 
L 1819 4666 
L 2450 4666 
L 2450 531 
L 3481 531 
L 3481 0 
L 794 0 
L 794 531 
z
" transform="scale(0.015625)"/>
       </defs>
       <use xlink:href="#DejaVuSans-31"/>
       <use xlink:href="#DejaVuSans-30" x="63.623047"/>
       <use xlink:href="#DejaVuSans-30" x="127.246094"/>
      </g>
     </g>
    </g>
    <g id="xtick_4">
     <g id="line2d_4">
      <g>
       <use xlink:href="#md7265343bc" x="196.7863" y="299.518125" style="stroke: #000000; stroke-width: 0.8"/>
      </g>
     </g>
     <g id="text_4">
      <!-- 150 -->
      <g transform="translate(198.701306 319.76485)rotate(-90)scale(0.0694 -0.0694)">
       <use xlink:href="#DejaVuSans-31"/>
       <use xlink:href="#DejaVuSans-35" x="63.623047"/>
       <use xlink:href="#DejaVuSans-30" x="127.246094"/>
      </g>
     </g>
    </g>
    <g id="xtick_5">
     <g id="line2d_5">
      <g>
       <use xlink:href="#md7265343bc" x="250.579802" y="299.518125" style="stroke: #000000; stroke-width: 0.8"/>
      </g>
     </g>
     <g id="text_5">
      <!-- 200 -->
      <g transform="translate(252.494809 319.76485)rotate(-90)scale(0.0694 -0.0694)">
       <defs>
        <path id="DejaVuSans-32" d="M 1228 531 
L 3431 531 
L 3431 0 
L 469 0 
L 469 531 
Q 828 903 1448 1529 
Q 2069 2156 2228 2338 
Q 2531 2678 2651 2914 
Q 2772 3150 2772 3378 
Q 2772 3750 2511 3984 
Q 2250 4219 1831 4219 
Q 1534 4219 1204 4116 
Q 875 4013 500 3803 
L 500 4441 
Q 881 4594 1212 4672 
Q 1544 4750 1819 4750 
Q 2544 4750 2975 4387 
Q 3406 4025 3406 3419 
Q 3406 3131 3298 2873 
Q 3191 2616 2906 2266 
Q 2828 2175 2409 1742 
Q 1991 1309 1228 531 
z
" transform="scale(0.015625)"/>
       </defs>
       <use xlink:href="#DejaVuSans-32"/>
       <use xlink:href="#DejaVuSans-30" x="63.623047"/>
       <use xlink:href="#DejaVuSans-30" x="127.246094"/>
      </g>
     </g>
    </g>
    <g id="text_6">
     <!-- number of components in model -->
     <g transform="translate(63.973879 331.363288)scale(0.1 -0.1)">
      <defs>
       <path id="DejaVuSans-6e" d="M 3513 2113 
L 3513 0 
L 2938 0 
L 2938 2094 
Q 2938 2591 2744 2837 
Q 2550 3084 2163 3084 
Q 1697 3084 1428 2787 
Q 1159 2491 1159 1978 
L 1159 0 
L 581 0 
L 581 3500 
L 1159 3500 
L 1159 2956 
Q 1366 3272 1645 3428 
Q 1925 3584 2291 3584 
Q 2894 3584 3203 3211 
Q 3513 2838 3513 2113 
z
" transform="scale(0.015625)"/>
       <path id="DejaVuSans-75" d="M 544 1381 
L 544 3500 
L 1119 3500 
L 1119 1403 
Q 1119 906 1312 657 
Q 1506 409 1894 409 
Q 2359 409 2629 706 
Q 2900 1003 2900 1516 
L 2900 3500 
L 3475 3500 
L 3475 0 
L 2900 0 
L 2900 538 
Q 2691 219 2414 64 
Q 2138 -91 1772 -91 
Q 1169 -91 856 284 
Q 544 659 544 1381 
z
M 1991 3584 
L 1991 3584 
z
" transform="scale(0.015625)"/>
       <path id="DejaVuSans-6d" d="M 3328 2828 
Q 3544 3216 3844 3400 
Q 4144 3584 4550 3584 
Q 5097 3584 5394 3201 
Q 5691 2819 5691 2113 
L 5691 0 
L 5113 0 
L 5113 2094 
Q 5113 2597 4934 2840 
Q 4756 3084 4391 3084 
Q 3944 3084 3684 2787 
Q 3425 2491 3425 1978 
L 3425 0 
L 2847 0 
L 2847 2094 
Q 2847 2600 2669 2842 
Q 2491 3084 2119 3084 
Q 1678 3084 1418 2786 
Q 1159 2488 1159 1978 
L 1159 0 
L 581 0 
L 581 3500 
L 1159 3500 
L 1159 2956 
Q 1356 3278 1631 3431 
Q 1906 3584 2284 3584 
Q 2666 3584 2933 3390 
Q 3200 3197 3328 2828 
z
" transform="scale(0.015625)"/>
       <path id="DejaVuSans-62" d="M 3116 1747 
Q 3116 2381 2855 2742 
Q 2594 3103 2138 3103 
Q 1681 3103 1420 2742 
Q 1159 2381 1159 1747 
Q 1159 1113 1420 752 
Q 1681 391 2138 391 
Q 2594 391 2855 752 
Q 3116 1113 3116 1747 
z
M 1159 2969 
Q 1341 3281 1617 3432 
Q 1894 3584 2278 3584 
Q 2916 3584 3314 3078 
Q 3713 2572 3713 1747 
Q 3713 922 3314 415 
Q 2916 -91 2278 -91 
Q 1894 -91 1617 61 
Q 1341 213 1159 525 
L 1159 0 
L 581 0 
L 581 4863 
L 1159 4863 
L 1159 2969 
z
" transform="scale(0.015625)"/>
       <path id="DejaVuSans-65" d="M 3597 1894 
L 3597 1613 
L 953 1613 
Q 991 1019 1311 708 
Q 1631 397 2203 397 
Q 2534 397 2845 478 
Q 3156 559 3463 722 
L 3463 178 
Q 3153 47 2828 -22 
Q 2503 -91 2169 -91 
Q 1331 -91 842 396 
Q 353 884 353 1716 
Q 353 2575 817 3079 
Q 1281 3584 2069 3584 
Q 2775 3584 3186 3129 
Q 3597 2675 3597 1894 
z
M 3022 2063 
Q 3016 2534 2758 2815 
Q 2500 3097 2075 3097 
Q 1594 3097 1305 2825 
Q 1016 2553 972 2059 
L 3022 2063 
z
" transform="scale(0.015625)"/>
       <path id="DejaVuSans-72" d="M 2631 2963 
Q 2534 3019 2420 3045 
Q 2306 3072 2169 3072 
Q 1681 3072 1420 2755 
Q 1159 2438 1159 1844 
L 1159 0 
L 581 0 
L 581 3500 
L 1159 3500 
L 1159 2956 
Q 1341 3275 1631 3429 
Q 1922 3584 2338 3584 
Q 2397 3584 2469 3576 
Q 2541 3569 2628 3553 
L 2631 2963 
z
" transform="scale(0.015625)"/>
       <path id="DejaVuSans-20" transform="scale(0.015625)"/>
       <path id="DejaVuSans-6f" d="M 1959 3097 
Q 1497 3097 1228 2736 
Q 959 2375 959 1747 
Q 959 1119 1226 758 
Q 1494 397 1959 397 
Q 2419 397 2687 759 
Q 2956 1122 2956 1747 
Q 2956 2369 2687 2733 
Q 2419 3097 1959 3097 
z
M 1959 3584 
Q 2709 3584 3137 3096 
Q 3566 2609 3566 1747 
Q 3566 888 3137 398 
Q 2709 -91 1959 -91 
Q 1206 -91 779 398 
Q 353 888 353 1747 
Q 353 2609 779 3096 
Q 1206 3584 1959 3584 
z
" transform="scale(0.015625)"/>
       <path id="DejaVuSans-66" d="M 2375 4863 
L 2375 4384 
L 1825 4384 
Q 1516 4384 1395 4259 
Q 1275 4134 1275 3809 
L 1275 3500 
L 2222 3500 
L 2222 3053 
L 1275 3053 
L 1275 0 
L 697 0 
L 697 3053 
L 147 3053 
L 147 3500 
L 697 3500 
L 697 3744 
Q 697 4328 969 4595 
Q 1241 4863 1831 4863 
L 2375 4863 
z
" transform="scale(0.015625)"/>
       <path id="DejaVuSans-63" d="M 3122 3366 
L 3122 2828 
Q 2878 2963 2633 3030 
Q 2388 3097 2138 3097 
Q 1578 3097 1268 2742 
Q 959 2388 959 1747 
Q 959 1106 1268 751 
Q 1578 397 2138 397 
Q 2388 397 2633 464 
Q 2878 531 3122 666 
L 3122 134 
Q 2881 22 2623 -34 
Q 2366 -91 2075 -91 
Q 1284 -91 818 406 
Q 353 903 353 1747 
Q 353 2603 823 3093 
Q 1294 3584 2113 3584 
Q 2378 3584 2631 3529 
Q 2884 3475 3122 3366 
z
" transform="scale(0.015625)"/>
       <path id="DejaVuSans-70" d="M 1159 525 
L 1159 -1331 
L 581 -1331 
L 581 3500 
L 1159 3500 
L 1159 2969 
Q 1341 3281 1617 3432 
Q 1894 3584 2278 3584 
Q 2916 3584 3314 3078 
Q 3713 2572 3713 1747 
Q 3713 922 3314 415 
Q 2916 -91 2278 -91 
Q 1894 -91 1617 61 
Q 1341 213 1159 525 
z
M 3116 1747 
Q 3116 2381 2855 2742 
Q 2594 3103 2138 3103 
Q 1681 3103 1420 2742 
Q 1159 2381 1159 1747 
Q 1159 1113 1420 752 
Q 1681 391 2138 391 
Q 2594 391 2855 752 
Q 3116 1113 3116 1747 
z
" transform="scale(0.015625)"/>
       <path id="DejaVuSans-74" d="M 1172 4494 
L 1172 3500 
L 2356 3500 
L 2356 3053 
L 1172 3053 
L 1172 1153 
Q 1172 725 1289 603 
Q 1406 481 1766 481 
L 2356 481 
L 2356 0 
L 1766 0 
Q 1100 0 847 248 
Q 594 497 594 1153 
L 594 3053 
L 172 3053 
L 172 3500 
L 594 3500 
L 594 4494 
L 1172 4494 
z
" transform="scale(0.015625)"/>
       <path id="DejaVuSans-73" d="M 2834 3397 
L 2834 2853 
Q 2591 2978 2328 3040 
Q 2066 3103 1784 3103 
Q 1356 3103 1142 2972 
Q 928 2841 928 2578 
Q 928 2378 1081 2264 
Q 1234 2150 1697 2047 
L 1894 2003 
Q 2506 1872 2764 1633 
Q 3022 1394 3022 966 
Q 3022 478 2636 193 
Q 2250 -91 1575 -91 
Q 1294 -91 989 -36 
Q 684 19 347 128 
L 347 722 
Q 666 556 975 473 
Q 1284 391 1588 391 
Q 1994 391 2212 530 
Q 2431 669 2431 922 
Q 2431 1156 2273 1281 
Q 2116 1406 1581 1522 
L 1381 1569 
Q 847 1681 609 1914 
Q 372 2147 372 2553 
Q 372 3047 722 3315 
Q 1072 3584 1716 3584 
Q 2034 3584 2315 3537 
Q 2597 3491 2834 3397 
z
" transform="scale(0.015625)"/>
       <path id="DejaVuSans-69" d="M 603 3500 
L 1178 3500 
L 1178 0 
L 603 0 
L 603 3500 
z
M 603 4863 
L 1178 4863 
L 1178 4134 
L 603 4134 
L 603 4863 
z
" transform="scale(0.015625)"/>
       <path id="DejaVuSans-64" d="M 2906 2969 
L 2906 4863 
L 3481 4863 
L 3481 0 
L 2906 0 
L 2906 525 
Q 2725 213 2448 61 
Q 2172 -91 1784 -91 
Q 1150 -91 751 415 
Q 353 922 353 1747 
Q 353 2572 751 3078 
Q 1150 3584 1784 3584 
Q 2172 3584 2448 3432 
Q 2725 3281 2906 2969 
z
M 947 1747 
Q 947 1113 1208 752 
Q 1469 391 1925 391 
Q 2381 391 2643 752 
Q 2906 1113 2906 1747 
Q 2906 2381 2643 2742 
Q 2381 3103 1925 3103 
Q 1469 3103 1208 2742 
Q 947 2381 947 1747 
z
" transform="scale(0.015625)"/>
       <path id="DejaVuSans-6c" d="M 603 4863 
L 1178 4863 
L 1178 0 
L 603 0 
L 603 4863 
z
" transform="scale(0.015625)"/>
      </defs>
      <use xlink:href="#DejaVuSans-6e"/>
      <use xlink:href="#DejaVuSans-75" x="63.378906"/>
      <use xlink:href="#DejaVuSans-6d" x="126.757812"/>
      <use xlink:href="#DejaVuSans-62" x="224.169922"/>
      <use xlink:href="#DejaVuSans-65" x="287.646484"/>
      <use xlink:href="#DejaVuSans-72" x="349.169922"/>
      <use xlink:href="#DejaVuSans-20" x="390.283203"/>
      <use xlink:href="#DejaVuSans-6f" x="422.070312"/>
      <use xlink:href="#DejaVuSans-66" x="483.251953"/>
      <use xlink:href="#DejaVuSans-20" x="518.457031"/>
      <use xlink:href="#DejaVuSans-63" x="550.244141"/>
      <use xlink:href="#DejaVuSans-6f" x="605.224609"/>
      <use xlink:href="#DejaVuSans-6d" x="666.40625"/>
      <use xlink:href="#DejaVuSans-70" x="763.818359"/>
      <use xlink:href="#DejaVuSans-6f" x="827.294922"/>
      <use xlink:href="#DejaVuSans-6e" x="888.476562"/>
      <use xlink:href="#DejaVuSans-65" x="951.855469"/>
      <use xlink:href="#DejaVuSans-6e" x="1013.378906"/>
      <use xlink:href="#DejaVuSans-74" x="1076.757812"/>
      <use xlink:href="#DejaVuSans-73" x="1115.966797"/>
      <use xlink:href="#DejaVuSans-20" x="1168.066406"/>
      <use xlink:href="#DejaVuSans-69" x="1199.853516"/>
      <use xlink:href="#DejaVuSans-6e" x="1227.636719"/>
      <use xlink:href="#DejaVuSans-20" x="1291.015625"/>
      <use xlink:href="#DejaVuSans-6d" x="1322.802734"/>
      <use xlink:href="#DejaVuSans-6f" x="1420.214844"/>
      <use xlink:href="#DejaVuSans-64" x="1481.396484"/>
      <use xlink:href="#DejaVuSans-65" x="1544.873047"/>
      <use xlink:href="#DejaVuSans-6c" x="1606.396484"/>
     </g>
    </g>
   </g>
   <g id="matplotlib.axis_2">
    <g id="text_7">
     <!-- cumulative variance explained (%) -->
     <g transform="translate(14.798438 248.043906)rotate(-90)scale(0.1 -0.1)">
      <defs>
       <path id="DejaVuSans-61" d="M 2194 1759 
Q 1497 1759 1228 1600 
Q 959 1441 959 1056 
Q 959 750 1161 570 
Q 1363 391 1709 391 
Q 2188 391 2477 730 
Q 2766 1069 2766 1631 
L 2766 1759 
L 2194 1759 
z
M 3341 1997 
L 3341 0 
L 2766 0 
L 2766 531 
Q 2569 213 2275 61 
Q 1981 -91 1556 -91 
Q 1019 -91 701 211 
Q 384 513 384 1019 
Q 384 1609 779 1909 
Q 1175 2209 1959 2209 
L 2766 2209 
L 2766 2266 
Q 2766 2663 2505 2880 
Q 2244 3097 1772 3097 
Q 1472 3097 1187 3025 
Q 903 2953 641 2809 
L 641 3341 
Q 956 3463 1253 3523 
Q 1550 3584 1831 3584 
Q 2591 3584 2966 3190 
Q 3341 2797 3341 1997 
z
" transform="scale(0.015625)"/>
       <path id="DejaVuSans-76" d="M 191 3500 
L 800 3500 
L 1894 563 
L 2988 3500 
L 3597 3500 
L 2284 0 
L 1503 0 
L 191 3500 
z
" transform="scale(0.015625)"/>
       <path id="DejaVuSans-78" d="M 3513 3500 
L 2247 1797 
L 3578 0 
L 2900 0 
L 1881 1375 
L 863 0 
L 184 0 
L 1544 1831 
L 300 3500 
L 978 3500 
L 1906 2253 
L 2834 3500 
L 3513 3500 
z
" transform="scale(0.015625)"/>
       <path id="DejaVuSans-28" d="M 1984 4856 
Q 1566 4138 1362 3434 
Q 1159 2731 1159 2009 
Q 1159 1288 1364 580 
Q 1569 -128 1984 -844 
L 1484 -844 
Q 1016 -109 783 600 
Q 550 1309 550 2009 
Q 550 2706 781 3412 
Q 1013 4119 1484 4856 
L 1984 4856 
z
" transform="scale(0.015625)"/>
       <path id="DejaVuSans-25" d="M 4653 2053 
Q 4381 2053 4226 1822 
Q 4072 1591 4072 1178 
Q 4072 772 4226 539 
Q 4381 306 4653 306 
Q 4919 306 5073 539 
Q 5228 772 5228 1178 
Q 5228 1588 5073 1820 
Q 4919 2053 4653 2053 
z
M 4653 2450 
Q 5147 2450 5437 2106 
Q 5728 1763 5728 1178 
Q 5728 594 5436 251 
Q 5144 -91 4653 -91 
Q 4153 -91 3862 251 
Q 3572 594 3572 1178 
Q 3572 1766 3864 2108 
Q 4156 2450 4653 2450 
z
M 1428 4353 
Q 1159 4353 1004 4120 
Q 850 3888 850 3481 
Q 850 3069 1003 2837 
Q 1156 2606 1428 2606 
Q 1700 2606 1854 2837 
Q 2009 3069 2009 3481 
Q 2009 3884 1853 4118 
Q 1697 4353 1428 4353 
z
M 4250 4750 
L 4750 4750 
L 1831 -91 
L 1331 -91 
L 4250 4750 
z
M 1428 4750 
Q 1922 4750 2215 4408 
Q 2509 4066 2509 3481 
Q 2509 2891 2217 2550 
Q 1925 2209 1428 2209 
Q 931 2209 642 2551 
Q 353 2894 353 3481 
Q 353 4063 643 4406 
Q 934 4750 1428 4750 
z
" transform="scale(0.015625)"/>
       <path id="DejaVuSans-29" d="M 513 4856 
L 1013 4856 
Q 1481 4119 1714 3412 
Q 1947 2706 1947 2009 
Q 1947 1309 1714 600 
Q 1481 -109 1013 -844 
L 513 -844 
Q 928 -128 1133 580 
Q 1338 1288 1338 2009 
Q 1338 2731 1133 3434 
Q 928 4138 513 4856 
z
" transform="scale(0.015625)"/>
      </defs>
      <use xlink:href="#DejaVuSans-63"/>
      <use xlink:href="#DejaVuSans-75" x="54.980469"/>
      <use xlink:href="#DejaVuSans-6d" x="118.359375"/>
      <use xlink:href="#DejaVuSans-75" x="215.771484"/>
      <use xlink:href="#DejaVuSans-6c" x="279.150391"/>
      <use xlink:href="#DejaVuSans-61" x="306.933594"/>
      <use xlink:href="#DejaVuSans-74" x="368.212891"/>
      <use xlink:href="#DejaVuSans-69" x="407.421875"/>
      <use xlink:href="#DejaVuSans-76" x="435.205078"/>
      <use xlink:href="#DejaVuSans-65" x="494.384766"/>
      <use xlink:href="#DejaVuSans-20" x="555.908203"/>
      <use xlink:href="#DejaVuSans-76" x="587.695312"/>
      <use xlink:href="#DejaVuSans-61" x="646.875"/>
      <use xlink:href="#DejaVuSans-72" x="708.154297"/>
      <use xlink:href="#DejaVuSans-69" x="749.267578"/>
      <use xlink:href="#DejaVuSans-61" x="777.050781"/>
      <use xlink:href="#DejaVuSans-6e" x="838.330078"/>
      <use xlink:href="#DejaVuSans-63" x="901.708984"/>
      <use xlink:href="#DejaVuSans-65" x="956.689453"/>
      <use xlink:href="#DejaVuSans-20" x="1018.212891"/>
      <use xlink:href="#DejaVuSans-65" x="1050"/>
      <use xlink:href="#DejaVuSans-78" x="1109.773438"/>
      <use xlink:href="#DejaVuSans-70" x="1168.953125"/>
      <use xlink:href="#DejaVuSans-6c" x="1232.429688"/>
      <use xlink:href="#DejaVuSans-61" x="1260.212891"/>
      <use xlink:href="#DejaVuSans-69" x="1321.492188"/>
      <use xlink:href="#DejaVuSans-6e" x="1349.275391"/>
      <use xlink:href="#DejaVuSans-65" x="1412.654297"/>
      <use xlink:href="#DejaVuSans-64" x="1474.177734"/>
      <use xlink:href="#DejaVuSans-20" x="1537.654297"/>
      <use xlink:href="#DejaVuSans-28" x="1569.441406"/>
      <use xlink:href="#DejaVuSans-25" x="1608.455078"/>
      <use xlink:href="#DejaVuSans-29" x="1703.474609"/>
     </g>
    </g>
   </g>
   <g id="line2d_6">
    <path d="M 35.405793 286.918125 
L 37.557533 224.534745 
L 38.633403 208.190044 
L 40.785143 185.091954 
L 41.861013 175.53182 
L 42.936883 167.689758 
L 44.012753 161.762063 
L 45.088623 156.681003 
L 47.240364 149.363234 
L 49.392104 142.776873 
L 51.543844 136.962183 
L 53.695584 131.818197 
L 55.847324 127.268579 
L 57.999064 123.523982 
L 60.150804 120.147315 
L 63.378414 115.594969 
L 65.530154 112.780631 
L 69.833634 107.639643 
L 73.061245 104.200768 
L 76.288855 101.039093 
L 79.516465 98.119964 
L 84.895815 93.646872 
L 89.199295 90.273169 
L 93.502776 87.158331 
L 98.882126 83.493329 
L 105.337346 79.392906 
L 111.792566 75.55536 
L 117.171917 72.642254 
L 122.551267 69.900575 
L 129.006487 66.801586 
L 137.613447 62.981094 
L 145.144538 59.909473 
L 153.751498 56.643104 
L 161.282589 54.003613 
L 169.889549 51.224594 
L 178.496509 48.681282 
L 188.17934 46.046559 
L 195.71043 44.184181 
L 205.39326 42.010957 
L 215.076091 40.063383 
L 225.834791 38.152294 
L 235.517622 36.668111 
L 245.200452 35.397966 
L 249.503932 34.918125 
L 255.959153 34.918125 
L 255.959153 34.918125 
" clip-path="url(#p590071e708)" style="fill: none; stroke: #800080; stroke-width: 2.5; stroke-linecap: square"/>
   </g>
   <g id="line2d_7">
    <path d="M 24.378125 160.918125 
L 266.986821 160.918125 
" clip-path="url(#p590071e708)" style="fill: none; stroke: #d3d3d3; stroke-width: 0.25; stroke-linecap: square"/>
   </g>
   <g id="line2d_8">
    <path d="M 45.088623 299.518125 
L 45.088623 22.318125 
" clip-path="url(#p590071e708)" style="fill: none; stroke-dasharray: 2,3.3; stroke-dashoffset: 0; stroke: #1f77b4; stroke-width: 2"/>
   </g>
   <g id="line2d_9">
    <path d="M 24.378125 110.518125 
L 266.986821 110.518125 
" clip-path="url(#p590071e708)" style="fill: none; stroke: #d3d3d3; stroke-width: 0.25; stroke-linecap: square"/>
   </g>
   <g id="line2d_10">
    <path d="M 67.681894 299.518125 
L 67.681894 22.318125 
" clip-path="url(#p590071e708)" style="fill: none; stroke-dasharray: 2,3.3; stroke-dashoffset: 0; stroke: #ff7f0e; stroke-width: 2"/>
   </g>
   <g id="line2d_11">
    <path d="M 24.378125 60.118125 
L 266.986821 60.118125 
" clip-path="url(#p590071e708)" style="fill: none; stroke: #d3d3d3; stroke-width: 0.25; stroke-linecap: square"/>
   </g>
   <g id="line2d_12">
    <path d="M 145.144538 299.518125 
L 145.144538 22.318125 
" clip-path="url(#p590071e708)" style="fill: none; stroke-dasharray: 2,3.3; stroke-dashoffset: 0; stroke: #2ca02c; stroke-width: 2"/>
   </g>
   <g id="patch_3">
    <path d="M 24.378125 299.518125 
L 266.986821 299.518125 
" style="fill: none; stroke: #000000; stroke-width: 0.8; stroke-linejoin: miter; stroke-linecap: square"/>
   </g>
   <g id="text_8">
    <g id="patch_4">
     <path d="M 35.405793 164.443428 
L 44.236943 164.443428 
Q 46.318943 164.443428 46.318943 162.361428 
L 46.318943 155.644809 
Q 46.318943 153.562809 44.236943 153.562809 
L 35.405793 153.562809 
Q 33.323793 153.562809 33.323793 155.644809 
L 33.323793 162.361428 
Q 33.323793 164.443428 35.405793 164.443428 
z
" style="fill: #ffffff; opacity: 0.8"/>
    </g>
    <!-- 50 -->
    <g transform="translate(35.405793 160.918125)scale(0.0694 -0.0694)">
     <use xlink:href="#DejaVuSans-35"/>
     <use xlink:href="#DejaVuSans-30" x="63.623047"/>
    </g>
   </g>
   <g id="text_9">
    <g id="patch_5">
     <path d="M 52.869207 225.122264 
L 52.869207 160.987158 
Q 52.869207 159.250158 51.132207 159.250158 
L 39.04504 159.250158 
Q 37.30804 159.250158 37.30804 160.987158 
L 37.30804 225.122264 
Q 37.30804 226.859264 39.04504 226.859264 
L 51.132207 226.859264 
Q 52.869207 226.859264 52.869207 225.122264 
z
" style="fill: #ffffff; opacity: 0.8"/>
    </g>
    <!-- 9 components explain -->
    <g transform="translate(43.444535 225.122264)rotate(-90)scale(0.0579 -0.0579)">
     <defs>
      <path id="DejaVuSans-39" d="M 703 97 
L 703 672 
Q 941 559 1184 500 
Q 1428 441 1663 441 
Q 2288 441 2617 861 
Q 2947 1281 2994 2138 
Q 2813 1869 2534 1725 
Q 2256 1581 1919 1581 
Q 1219 1581 811 2004 
Q 403 2428 403 3163 
Q 403 3881 828 4315 
Q 1253 4750 1959 4750 
Q 2769 4750 3195 4129 
Q 3622 3509 3622 2328 
Q 3622 1225 3098 567 
Q 2575 -91 1691 -91 
Q 1453 -91 1209 -44 
Q 966 3 703 97 
z
M 1959 2075 
Q 2384 2075 2632 2365 
Q 2881 2656 2881 3163 
Q 2881 3666 2632 3958 
Q 2384 4250 1959 4250 
Q 1534 4250 1286 3958 
Q 1038 3666 1038 3163 
Q 1038 2656 1286 2365 
Q 1534 2075 1959 2075 
z
" transform="scale(0.015625)"/>
     </defs>
     <use xlink:href="#DejaVuSans-39"/>
     <use xlink:href="#DejaVuSans-20" x="63.623047"/>
     <use xlink:href="#DejaVuSans-63" x="95.410156"/>
     <use xlink:href="#DejaVuSans-6f" x="150.390625"/>
     <use xlink:href="#DejaVuSans-6d" x="211.572266"/>
     <use xlink:href="#DejaVuSans-70" x="308.984375"/>
     <use xlink:href="#DejaVuSans-6f" x="372.460938"/>
     <use xlink:href="#DejaVuSans-6e" x="433.642578"/>
     <use xlink:href="#DejaVuSans-65" x="497.021484"/>
     <use xlink:href="#DejaVuSans-6e" x="558.544922"/>
     <use xlink:href="#DejaVuSans-74" x="621.923828"/>
     <use xlink:href="#DejaVuSans-73" x="661.132812"/>
     <use xlink:href="#DejaVuSans-20" x="713.232422"/>
     <use xlink:href="#DejaVuSans-65" x="745.019531"/>
     <use xlink:href="#DejaVuSans-78" x="804.792969"/>
     <use xlink:href="#DejaVuSans-70" x="863.972656"/>
     <use xlink:href="#DejaVuSans-6c" x="927.449219"/>
     <use xlink:href="#DejaVuSans-61" x="955.232422"/>
     <use xlink:href="#DejaVuSans-69" x="1016.511719"/>
     <use xlink:href="#DejaVuSans-6e" x="1044.294922"/>
    </g>
    <!-- 50% of variance -->
    <g transform="translate(49.928068 216.583823)rotate(-90)scale(0.0579 -0.0579)">
     <use xlink:href="#DejaVuSans-35"/>
     <use xlink:href="#DejaVuSans-30" x="63.623047"/>
     <use xlink:href="#DejaVuSans-25" x="127.246094"/>
     <use xlink:href="#DejaVuSans-20" x="222.265625"/>
     <use xlink:href="#DejaVuSans-6f" x="254.052734"/>
     <use xlink:href="#DejaVuSans-66" x="315.234375"/>
     <use xlink:href="#DejaVuSans-20" x="350.439453"/>
     <use xlink:href="#DejaVuSans-76" x="382.226562"/>
     <use xlink:href="#DejaVuSans-61" x="441.40625"/>
     <use xlink:href="#DejaVuSans-72" x="502.685547"/>
     <use xlink:href="#DejaVuSans-69" x="543.798828"/>
     <use xlink:href="#DejaVuSans-61" x="571.582031"/>
     <use xlink:href="#DejaVuSans-6e" x="632.861328"/>
     <use xlink:href="#DejaVuSans-63" x="696.240234"/>
     <use xlink:href="#DejaVuSans-65" x="751.220703"/>
    </g>
   </g>
   <g id="text_10">
    <g id="patch_6">
     <path d="M 35.405793 114.043428 
L 44.236943 114.043428 
Q 46.318943 114.043428 46.318943 111.961428 
L 46.318943 105.244809 
Q 46.318943 103.162809 44.236943 103.162809 
L 35.405793 103.162809 
Q 33.323793 103.162809 33.323793 105.244809 
L 33.323793 111.961428 
Q 33.323793 114.043428 35.405793 114.043428 
z
" style="fill: #ffffff; opacity: 0.8"/>
    </g>
    <!-- 70 -->
    <g transform="translate(35.405793 110.518125)scale(0.0694 -0.0694)">
     <defs>
      <path id="DejaVuSans-37" d="M 525 4666 
L 3525 4666 
L 3525 4397 
L 1831 0 
L 1172 0 
L 2766 4134 
L 525 4134 
L 525 4666 
z
" transform="scale(0.015625)"/>
     </defs>
     <use xlink:href="#DejaVuSans-37"/>
     <use xlink:href="#DejaVuSans-30" x="63.623047"/>
    </g>
   </g>
   <g id="text_11">
    <g id="patch_7">
     <path d="M 75.462478 225.122264 
L 75.462478 157.30327 
Q 75.462478 155.56627 73.725478 155.56627 
L 61.63831 155.56627 
Q 59.90131 155.56627 59.90131 157.30327 
L 59.90131 225.122264 
Q 59.90131 226.859264 61.63831 226.859264 
L 73.725478 226.859264 
Q 75.462478 226.859264 75.462478 225.122264 
z
" style="fill: #ffffff; opacity: 0.8"/>
    </g>
    <!-- 30 components explain -->
    <g transform="translate(66.037806 225.122264)rotate(-90)scale(0.0579 -0.0579)">
     <defs>
      <path id="DejaVuSans-33" d="M 2597 2516 
Q 3050 2419 3304 2112 
Q 3559 1806 3559 1356 
Q 3559 666 3084 287 
Q 2609 -91 1734 -91 
Q 1441 -91 1130 -33 
Q 819 25 488 141 
L 488 750 
Q 750 597 1062 519 
Q 1375 441 1716 441 
Q 2309 441 2620 675 
Q 2931 909 2931 1356 
Q 2931 1769 2642 2001 
Q 2353 2234 1838 2234 
L 1294 2234 
L 1294 2753 
L 1863 2753 
Q 2328 2753 2575 2939 
Q 2822 3125 2822 3475 
Q 2822 3834 2567 4026 
Q 2313 4219 1838 4219 
Q 1578 4219 1281 4162 
Q 984 4106 628 3988 
L 628 4550 
Q 988 4650 1302 4700 
Q 1616 4750 1894 4750 
Q 2613 4750 3031 4423 
Q 3450 4097 3450 3541 
Q 3450 3153 3228 2886 
Q 3006 2619 2597 2516 
z
" transform="scale(0.015625)"/>
     </defs>
     <use xlink:href="#DejaVuSans-33"/>
     <use xlink:href="#DejaVuSans-30" x="63.623047"/>
     <use xlink:href="#DejaVuSans-20" x="127.246094"/>
     <use xlink:href="#DejaVuSans-63" x="159.033203"/>
     <use xlink:href="#DejaVuSans-6f" x="214.013672"/>
     <use xlink:href="#DejaVuSans-6d" x="275.195312"/>
     <use xlink:href="#DejaVuSans-70" x="372.607422"/>
     <use xlink:href="#DejaVuSans-6f" x="436.083984"/>
     <use xlink:href="#DejaVuSans-6e" x="497.265625"/>
     <use xlink:href="#DejaVuSans-65" x="560.644531"/>
     <use xlink:href="#DejaVuSans-6e" x="622.167969"/>
     <use xlink:href="#DejaVuSans-74" x="685.546875"/>
     <use xlink:href="#DejaVuSans-73" x="724.755859"/>
     <use xlink:href="#DejaVuSans-20" x="776.855469"/>
     <use xlink:href="#DejaVuSans-65" x="808.642578"/>
     <use xlink:href="#DejaVuSans-78" x="868.416016"/>
     <use xlink:href="#DejaVuSans-70" x="927.595703"/>
     <use xlink:href="#DejaVuSans-6c" x="991.072266"/>
     <use xlink:href="#DejaVuSans-61" x="1018.855469"/>
     <use xlink:href="#DejaVuSans-69" x="1080.134766"/>
     <use xlink:href="#DejaVuSans-6e" x="1107.917969"/>
    </g>
    <!-- 70% of variance -->
    <g transform="translate(72.521339 214.74188)rotate(-90)scale(0.0579 -0.0579)">
     <use xlink:href="#DejaVuSans-37"/>
     <use xlink:href="#DejaVuSans-30" x="63.623047"/>
     <use xlink:href="#DejaVuSans-25" x="127.246094"/>
     <use xlink:href="#DejaVuSans-20" x="222.265625"/>
     <use xlink:href="#DejaVuSans-6f" x="254.052734"/>
     <use xlink:href="#DejaVuSans-66" x="315.234375"/>
     <use xlink:href="#DejaVuSans-20" x="350.439453"/>
     <use xlink:href="#DejaVuSans-76" x="382.226562"/>
     <use xlink:href="#DejaVuSans-61" x="441.40625"/>
     <use xlink:href="#DejaVuSans-72" x="502.685547"/>
     <use xlink:href="#DejaVuSans-69" x="543.798828"/>
     <use xlink:href="#DejaVuSans-61" x="571.582031"/>
     <use xlink:href="#DejaVuSans-6e" x="632.861328"/>
     <use xlink:href="#DejaVuSans-63" x="696.240234"/>
     <use xlink:href="#DejaVuSans-65" x="751.220703"/>
    </g>
   </g>
   <g id="text_12">
    <g id="patch_8">
     <path d="M 35.405793 63.643428 
L 44.236943 63.643428 
Q 46.318943 63.643428 46.318943 61.561428 
L 46.318943 54.844809 
Q 46.318943 52.762809 44.236943 52.762809 
L 35.405793 52.762809 
Q 33.323793 52.762809 33.323793 54.844809 
L 33.323793 61.561428 
Q 33.323793 63.643428 35.405793 63.643428 
z
" style="fill: #ffffff; opacity: 0.8"/>
    </g>
    <!-- 90 -->
    <g transform="translate(35.405793 60.118125)scale(0.0694 -0.0694)">
     <use xlink:href="#DejaVuSans-39"/>
     <use xlink:href="#DejaVuSans-30" x="63.623047"/>
    </g>
   </g>
   <g id="text_13">
    <g id="patch_9">
     <path d="M 152.925122 225.122264 
L 152.925122 153.619383 
Q 152.925122 151.882383 151.188122 151.882383 
L 139.100954 151.882383 
Q 137.363954 151.882383 137.363954 153.619383 
L 137.363954 225.122264 
Q 137.363954 226.859264 139.100954 226.859264 
L 151.188122 226.859264 
Q 152.925122 226.859264 152.925122 225.122264 
z
" style="fill: #ffffff; opacity: 0.8"/>
    </g>
    <!-- 102 components explain -->
    <g transform="translate(143.500449 225.122264)rotate(-90)scale(0.0579 -0.0579)">
     <use xlink:href="#DejaVuSans-31"/>
     <use xlink:href="#DejaVuSans-30" x="63.623047"/>
     <use xlink:href="#DejaVuSans-32" x="127.246094"/>
     <use xlink:href="#DejaVuSans-20" x="190.869141"/>
     <use xlink:href="#DejaVuSans-63" x="222.65625"/>
     <use xlink:href="#DejaVuSans-6f" x="277.636719"/>
     <use xlink:href="#DejaVuSans-6d" x="338.818359"/>
     <use xlink:href="#DejaVuSans-70" x="436.230469"/>
     <use xlink:href="#DejaVuSans-6f" x="499.707031"/>
     <use xlink:href="#DejaVuSans-6e" x="560.888672"/>
     <use xlink:href="#DejaVuSans-65" x="624.267578"/>
     <use xlink:href="#DejaVuSans-6e" x="685.791016"/>
     <use xlink:href="#DejaVuSans-74" x="749.169922"/>
     <use xlink:href="#DejaVuSans-73" x="788.378906"/>
     <use xlink:href="#DejaVuSans-20" x="840.478516"/>
     <use xlink:href="#DejaVuSans-65" x="872.265625"/>
     <use xlink:href="#DejaVuSans-78" x="932.039062"/>
     <use xlink:href="#DejaVuSans-70" x="991.21875"/>
     <use xlink:href="#DejaVuSans-6c" x="1054.695312"/>
     <use xlink:href="#DejaVuSans-61" x="1082.478516"/>
     <use xlink:href="#DejaVuSans-69" x="1143.757812"/>
     <use xlink:href="#DejaVuSans-6e" x="1171.541016"/>
    </g>
    <!-- 90% of variance -->
    <g transform="translate(149.983983 212.899936)rotate(-90)scale(0.0579 -0.0579)">
     <use xlink:href="#DejaVuSans-39"/>
     <use xlink:href="#DejaVuSans-30" x="63.623047"/>
     <use xlink:href="#DejaVuSans-25" x="127.246094"/>
     <use xlink:href="#DejaVuSans-20" x="222.265625"/>
     <use xlink:href="#DejaVuSans-6f" x="254.052734"/>
     <use xlink:href="#DejaVuSans-66" x="315.234375"/>
     <use xlink:href="#DejaVuSans-20" x="350.439453"/>
     <use xlink:href="#DejaVuSans-76" x="382.226562"/>
     <use xlink:href="#DejaVuSans-61" x="441.40625"/>
     <use xlink:href="#DejaVuSans-72" x="502.685547"/>
     <use xlink:href="#DejaVuSans-69" x="543.798828"/>
     <use xlink:href="#DejaVuSans-61" x="571.582031"/>
     <use xlink:href="#DejaVuSans-6e" x="632.861328"/>
     <use xlink:href="#DejaVuSans-63" x="696.240234"/>
     <use xlink:href="#DejaVuSans-65" x="751.220703"/>
    </g>
   </g>
   <g id="text_14">
    <!-- aCompCor (CSF mask) -->
    <g transform="translate(78.09716 16.318125)scale(0.12 -0.12)">
     <defs>
      <path id="DejaVuSans-43" d="M 4122 4306 
L 4122 3641 
Q 3803 3938 3442 4084 
Q 3081 4231 2675 4231 
Q 1875 4231 1450 3742 
Q 1025 3253 1025 2328 
Q 1025 1406 1450 917 
Q 1875 428 2675 428 
Q 3081 428 3442 575 
Q 3803 722 4122 1019 
L 4122 359 
Q 3791 134 3420 21 
Q 3050 -91 2638 -91 
Q 1578 -91 968 557 
Q 359 1206 359 2328 
Q 359 3453 968 4101 
Q 1578 4750 2638 4750 
Q 3056 4750 3426 4639 
Q 3797 4528 4122 4306 
z
" transform="scale(0.015625)"/>
      <path id="DejaVuSans-53" d="M 3425 4513 
L 3425 3897 
Q 3066 4069 2747 4153 
Q 2428 4238 2131 4238 
Q 1616 4238 1336 4038 
Q 1056 3838 1056 3469 
Q 1056 3159 1242 3001 
Q 1428 2844 1947 2747 
L 2328 2669 
Q 3034 2534 3370 2195 
Q 3706 1856 3706 1288 
Q 3706 609 3251 259 
Q 2797 -91 1919 -91 
Q 1588 -91 1214 -16 
Q 841 59 441 206 
L 441 856 
Q 825 641 1194 531 
Q 1563 422 1919 422 
Q 2459 422 2753 634 
Q 3047 847 3047 1241 
Q 3047 1584 2836 1778 
Q 2625 1972 2144 2069 
L 1759 2144 
Q 1053 2284 737 2584 
Q 422 2884 422 3419 
Q 422 4038 858 4394 
Q 1294 4750 2059 4750 
Q 2388 4750 2728 4690 
Q 3069 4631 3425 4513 
z
" transform="scale(0.015625)"/>
      <path id="DejaVuSans-46" d="M 628 4666 
L 3309 4666 
L 3309 4134 
L 1259 4134 
L 1259 2759 
L 3109 2759 
L 3109 2228 
L 1259 2228 
L 1259 0 
L 628 0 
L 628 4666 
z
" transform="scale(0.015625)"/>
      <path id="DejaVuSans-6b" d="M 581 4863 
L 1159 4863 
L 1159 1991 
L 2875 3500 
L 3609 3500 
L 1753 1863 
L 3688 0 
L 2938 0 
L 1159 1709 
L 1159 0 
L 581 0 
L 581 4863 
z
" transform="scale(0.015625)"/>
     </defs>
     <use xlink:href="#DejaVuSans-61"/>
     <use xlink:href="#DejaVuSans-43" x="61.279297"/>
     <use xlink:href="#DejaVuSans-6f" x="131.103516"/>
     <use xlink:href="#DejaVuSans-6d" x="192.285156"/>
     <use xlink:href="#DejaVuSans-70" x="289.697266"/>
     <use xlink:href="#DejaVuSans-43" x="353.173828"/>
     <use xlink:href="#DejaVuSans-6f" x="422.998047"/>
     <use xlink:href="#DejaVuSans-72" x="484.179688"/>
     <use xlink:href="#DejaVuSans-20" x="525.292969"/>
     <use xlink:href="#DejaVuSans-28" x="557.080078"/>
     <use xlink:href="#DejaVuSans-43" x="596.09375"/>
     <use xlink:href="#DejaVuSans-53" x="665.917969"/>
     <use xlink:href="#DejaVuSans-46" x="729.394531"/>
     <use xlink:href="#DejaVuSans-20" x="786.914062"/>
     <use xlink:href="#DejaVuSans-6d" x="818.701172"/>
     <use xlink:href="#DejaVuSans-61" x="916.113281"/>
     <use xlink:href="#DejaVuSans-73" x="977.392578"/>
     <use xlink:href="#DejaVuSans-6b" x="1029.492188"/>
     <use xlink:href="#DejaVuSans-29" x="1087.402344"/>
    </g>
   </g>
  </g>
  <g id="axes_2">
   <g id="patch_10">
    <path d="M 315.50856 299.518125 
L 558.117255 299.518125 
L 558.117255 22.318125 
L 315.50856 22.318125 
z
" style="fill: #ffffff"/>
   </g>
   <g id="matplotlib.axis_3">
    <g id="xtick_6">
     <g id="line2d_13">
      <g>
       <use xlink:href="#md7265343bc" x="326.536228" y="299.518125" style="stroke: #000000; stroke-width: 0.8"/>
      </g>
     </g>
     <g id="text_15">
      <!-- 0 -->
      <g transform="translate(328.451234 310.9337)rotate(-90)scale(0.0694 -0.0694)">
       <use xlink:href="#DejaVuSans-30"/>
      </g>
     </g>
    </g>
    <g id="xtick_7">
     <g id="line2d_14">
      <g>
       <use xlink:href="#md7265343bc" x="364.237657" y="299.518125" style="stroke: #000000; stroke-width: 0.8"/>
      </g>
     </g>
     <g id="text_16">
      <!-- 20 -->
      <g transform="translate(366.152663 315.349275)rotate(-90)scale(0.0694 -0.0694)">
       <use xlink:href="#DejaVuSans-32"/>
       <use xlink:href="#DejaVuSans-30" x="63.623047"/>
      </g>
     </g>
    </g>
    <g id="xtick_8">
     <g id="line2d_15">
      <g>
       <use xlink:href="#md7265343bc" x="401.939086" y="299.518125" style="stroke: #000000; stroke-width: 0.8"/>
      </g>
     </g>
     <g id="text_17">
      <!-- 40 -->
      <g transform="translate(403.854092 315.349275)rotate(-90)scale(0.0694 -0.0694)">
       <defs>
        <path id="DejaVuSans-34" d="M 2419 4116 
L 825 1625 
L 2419 1625 
L 2419 4116 
z
M 2253 4666 
L 3047 4666 
L 3047 1625 
L 3713 1625 
L 3713 1100 
L 3047 1100 
L 3047 0 
L 2419 0 
L 2419 1100 
L 313 1100 
L 313 1709 
L 2253 4666 
z
" transform="scale(0.015625)"/>
       </defs>
       <use xlink:href="#DejaVuSans-34"/>
       <use xlink:href="#DejaVuSans-30" x="63.623047"/>
      </g>
     </g>
    </g>
    <g id="xtick_9">
     <g id="line2d_16">
      <g>
       <use xlink:href="#md7265343bc" x="439.640515" y="299.518125" style="stroke: #000000; stroke-width: 0.8"/>
      </g>
     </g>
     <g id="text_18">
      <!-- 60 -->
      <g transform="translate(441.555521 315.349275)rotate(-90)scale(0.0694 -0.0694)">
       <defs>
        <path id="DejaVuSans-36" d="M 2113 2584 
Q 1688 2584 1439 2293 
Q 1191 2003 1191 1497 
Q 1191 994 1439 701 
Q 1688 409 2113 409 
Q 2538 409 2786 701 
Q 3034 994 3034 1497 
Q 3034 2003 2786 2293 
Q 2538 2584 2113 2584 
z
M 3366 4563 
L 3366 3988 
Q 3128 4100 2886 4159 
Q 2644 4219 2406 4219 
Q 1781 4219 1451 3797 
Q 1122 3375 1075 2522 
Q 1259 2794 1537 2939 
Q 1816 3084 2150 3084 
Q 2853 3084 3261 2657 
Q 3669 2231 3669 1497 
Q 3669 778 3244 343 
Q 2819 -91 2113 -91 
Q 1303 -91 875 529 
Q 447 1150 447 2328 
Q 447 3434 972 4092 
Q 1497 4750 2381 4750 
Q 2619 4750 2861 4703 
Q 3103 4656 3366 4563 
z
" transform="scale(0.015625)"/>
       </defs>
       <use xlink:href="#DejaVuSans-36"/>
       <use xlink:href="#DejaVuSans-30" x="63.623047"/>
      </g>
     </g>
    </g>
    <g id="xtick_10">
     <g id="line2d_17">
      <g>
       <use xlink:href="#md7265343bc" x="477.341944" y="299.518125" style="stroke: #000000; stroke-width: 0.8"/>
      </g>
     </g>
     <g id="text_19">
      <!-- 80 -->
      <g transform="translate(479.25695 315.349275)rotate(-90)scale(0.0694 -0.0694)">
       <defs>
        <path id="DejaVuSans-38" d="M 2034 2216 
Q 1584 2216 1326 1975 
Q 1069 1734 1069 1313 
Q 1069 891 1326 650 
Q 1584 409 2034 409 
Q 2484 409 2743 651 
Q 3003 894 3003 1313 
Q 3003 1734 2745 1975 
Q 2488 2216 2034 2216 
z
M 1403 2484 
Q 997 2584 770 2862 
Q 544 3141 544 3541 
Q 544 4100 942 4425 
Q 1341 4750 2034 4750 
Q 2731 4750 3128 4425 
Q 3525 4100 3525 3541 
Q 3525 3141 3298 2862 
Q 3072 2584 2669 2484 
Q 3125 2378 3379 2068 
Q 3634 1759 3634 1313 
Q 3634 634 3220 271 
Q 2806 -91 2034 -91 
Q 1263 -91 848 271 
Q 434 634 434 1313 
Q 434 1759 690 2068 
Q 947 2378 1403 2484 
z
M 1172 3481 
Q 1172 3119 1398 2916 
Q 1625 2713 2034 2713 
Q 2441 2713 2670 2916 
Q 2900 3119 2900 3481 
Q 2900 3844 2670 4047 
Q 2441 4250 2034 4250 
Q 1625 4250 1398 4047 
Q 1172 3844 1172 3481 
z
" transform="scale(0.015625)"/>
       </defs>
       <use xlink:href="#DejaVuSans-38"/>
       <use xlink:href="#DejaVuSans-30" x="63.623047"/>
      </g>
     </g>
    </g>
    <g id="xtick_11">
     <g id="line2d_18">
      <g>
       <use xlink:href="#md7265343bc" x="515.043373" y="299.518125" style="stroke: #000000; stroke-width: 0.8"/>
      </g>
     </g>
     <g id="text_20">
      <!-- 100 -->
      <g transform="translate(516.958379 319.76485)rotate(-90)scale(0.0694 -0.0694)">
       <use xlink:href="#DejaVuSans-31"/>
       <use xlink:href="#DejaVuSans-30" x="63.623047"/>
       <use xlink:href="#DejaVuSans-30" x="127.246094"/>
      </g>
     </g>
    </g>
    <g id="xtick_12">
     <g id="line2d_19">
      <g>
       <use xlink:href="#md7265343bc" x="552.744802" y="299.518125" style="stroke: #000000; stroke-width: 0.8"/>
      </g>
     </g>
     <g id="text_21">
      <!-- 120 -->
      <g transform="translate(554.659808 319.76485)rotate(-90)scale(0.0694 -0.0694)">
       <use xlink:href="#DejaVuSans-31"/>
       <use xlink:href="#DejaVuSans-32" x="63.623047"/>
       <use xlink:href="#DejaVuSans-30" x="127.246094"/>
      </g>
     </g>
    </g>
    <g id="text_22">
     <!-- number of components in model -->
     <g transform="translate(355.104314 331.363288)scale(0.1 -0.1)">
      <use xlink:href="#DejaVuSans-6e"/>
      <use xlink:href="#DejaVuSans-75" x="63.378906"/>
      <use xlink:href="#DejaVuSans-6d" x="126.757812"/>
      <use xlink:href="#DejaVuSans-62" x="224.169922"/>
      <use xlink:href="#DejaVuSans-65" x="287.646484"/>
      <use xlink:href="#DejaVuSans-72" x="349.169922"/>
      <use xlink:href="#DejaVuSans-20" x="390.283203"/>
      <use xlink:href="#DejaVuSans-6f" x="422.070312"/>
      <use xlink:href="#DejaVuSans-66" x="483.251953"/>
      <use xlink:href="#DejaVuSans-20" x="518.457031"/>
      <use xlink:href="#DejaVuSans-63" x="550.244141"/>
      <use xlink:href="#DejaVuSans-6f" x="605.224609"/>
      <use xlink:href="#DejaVuSans-6d" x="666.40625"/>
      <use xlink:href="#DejaVuSans-70" x="763.818359"/>
      <use xlink:href="#DejaVuSans-6f" x="827.294922"/>
      <use xlink:href="#DejaVuSans-6e" x="888.476562"/>
      <use xlink:href="#DejaVuSans-65" x="951.855469"/>
      <use xlink:href="#DejaVuSans-6e" x="1013.378906"/>
      <use xlink:href="#DejaVuSans-74" x="1076.757812"/>
      <use xlink:href="#DejaVuSans-73" x="1115.966797"/>
      <use xlink:href="#DejaVuSans-20" x="1168.066406"/>
      <use xlink:href="#DejaVuSans-69" x="1199.853516"/>
      <use xlink:href="#DejaVuSans-6e" x="1227.636719"/>
      <use xlink:href="#DejaVuSans-20" x="1291.015625"/>
      <use xlink:href="#DejaVuSans-6d" x="1322.802734"/>
      <use xlink:href="#DejaVuSans-6f" x="1420.214844"/>
      <use xlink:href="#DejaVuSans-64" x="1481.396484"/>
      <use xlink:href="#DejaVuSans-65" x="1544.873047"/>
      <use xlink:href="#DejaVuSans-6c" x="1606.396484"/>
     </g>
    </g>
   </g>
   <g id="matplotlib.axis_4">
    <g id="text_23">
     <!-- cumulative variance explained (%) -->
     <g transform="translate(305.928872 248.043906)rotate(-90)scale(0.1 -0.1)">
      <use xlink:href="#DejaVuSans-63"/>
      <use xlink:href="#DejaVuSans-75" x="54.980469"/>
      <use xlink:href="#DejaVuSans-6d" x="118.359375"/>
      <use xlink:href="#DejaVuSans-75" x="215.771484"/>
      <use xlink:href="#DejaVuSans-6c" x="279.150391"/>
      <use xlink:href="#DejaVuSans-61" x="306.933594"/>
      <use xlink:href="#DejaVuSans-74" x="368.212891"/>
      <use xlink:href="#DejaVuSans-69" x="407.421875"/>
      <use xlink:href="#DejaVuSans-76" x="435.205078"/>
      <use xlink:href="#DejaVuSans-65" x="494.384766"/>
      <use xlink:href="#DejaVuSans-20" x="555.908203"/>
      <use xlink:href="#DejaVuSans-76" x="587.695312"/>
      <use xlink:href="#DejaVuSans-61" x="646.875"/>
      <use xlink:href="#DejaVuSans-72" x="708.154297"/>
      <use xlink:href="#DejaVuSans-69" x="749.267578"/>
      <use xlink:href="#DejaVuSans-61" x="777.050781"/>
      <use xlink:href="#DejaVuSans-6e" x="838.330078"/>
      <use xlink:href="#DejaVuSans-63" x="901.708984"/>
      <use xlink:href="#DejaVuSans-65" x="956.689453"/>
      <use xlink:href="#DejaVuSans-20" x="1018.212891"/>
      <use xlink:href="#DejaVuSans-65" x="1050"/>
      <use xlink:href="#DejaVuSans-78" x="1109.773438"/>
      <use xlink:href="#DejaVuSans-70" x="1168.953125"/>
      <use xlink:href="#DejaVuSans-6c" x="1232.429688"/>
      <use xlink:href="#DejaVuSans-61" x="1260.212891"/>
      <use xlink:href="#DejaVuSans-69" x="1321.492188"/>
      <use xlink:href="#DejaVuSans-6e" x="1349.275391"/>
      <use xlink:href="#DejaVuSans-65" x="1412.654297"/>
      <use xlink:href="#DejaVuSans-64" x="1474.177734"/>
      <use xlink:href="#DejaVuSans-20" x="1537.654297"/>
      <use xlink:href="#DejaVuSans-28" x="1569.441406"/>
      <use xlink:href="#DejaVuSans-25" x="1608.455078"/>
      <use xlink:href="#DejaVuSans-29" x="1703.474609"/>
     </g>
    </g>
   </g>
   <g id="line2d_20">
    <path d="M 326.536228 286.918125 
L 328.421299 249.037421 
L 330.306371 213.549606 
L 332.191442 192.761276 
L 334.076514 180.849604 
L 335.961585 170.701575 
L 337.846656 162.744752 
L 339.731728 155.781763 
L 341.616799 149.799799 
L 343.501871 144.189763 
L 345.386942 139.069056 
L 347.272014 134.457494 
L 349.157085 130.374224 
L 351.042157 126.779147 
L 352.927228 123.418682 
L 354.8123 120.201604 
L 356.697371 117.090372 
L 358.582442 114.170546 
L 360.467514 111.311223 
L 362.352585 108.532888 
L 364.237657 105.847821 
L 366.122728 103.307988 
L 368.0078 100.798311 
L 369.892871 98.40917 
L 371.777943 96.096725 
L 373.663014 93.943232 
L 375.548085 91.848763 
L 377.433157 89.838407 
L 379.318228 87.960878 
L 381.2033 86.113717 
L 383.088371 84.326087 
L 384.973443 82.56352 
L 386.858514 80.875612 
L 388.743586 79.222577 
L 390.628657 77.600591 
L 392.513729 76.036987 
L 394.3988 74.505297 
L 396.283871 73.034179 
L 398.168943 71.592893 
L 400.054014 70.232082 
L 401.939086 68.927715 
L 403.824157 67.675188 
L 405.709229 66.439071 
L 407.5943 65.224429 
L 409.479372 64.033464 
L 411.364443 62.921288 
L 413.249514 61.83712 
L 415.134586 60.775232 
L 417.019657 59.76737 
L 418.904729 58.784243 
L 420.7898 57.838107 
L 422.674872 56.922578 
L 424.559943 56.033546 
L 426.445015 55.158501 
L 428.330086 54.333982 
L 430.215158 53.528077 
L 432.100229 52.728968 
L 433.9853 51.976136 
L 435.870372 51.238089 
L 437.755443 50.518481 
L 439.640515 49.850727 
L 441.525586 49.18567 
L 443.410658 48.549488 
L 445.295729 47.922774 
L 447.180801 47.326812 
L 449.065872 46.780403 
L 450.950943 46.25688 
L 452.836015 45.752952 
L 454.721086 45.250782 
L 456.606158 44.759144 
L 458.491229 44.291864 
L 460.376301 43.864357 
L 462.261372 43.449504 
L 464.146444 43.038432 
L 466.031515 42.636041 
L 467.916587 42.240977 
L 469.801658 41.863606 
L 471.686729 41.513979 
L 473.571801 41.173474 
L 475.456872 40.844608 
L 477.341944 40.526401 
L 479.227015 40.220483 
L 481.112087 39.919102 
L 482.997158 39.636425 
L 484.88223 39.358095 
L 486.767301 39.103253 
L 488.652372 38.850642 
L 490.537444 38.609784 
L 492.422515 38.379989 
L 494.307587 38.158699 
L 496.192658 37.941914 
L 498.07773 37.74722 
L 499.962801 37.560271 
L 501.847873 37.378664 
L 503.732944 37.200284 
L 505.618016 37.030453 
L 507.503087 36.864239 
L 509.388158 36.710163 
L 511.27323 36.567043 
L 513.158301 36.428522 
L 515.043373 36.292863 
L 516.928444 36.165734 
L 518.813516 36.043821 
L 520.698587 35.926135 
L 522.583659 35.814575 
L 524.46873 35.711992 
L 526.353801 35.611939 
L 528.238873 35.517814 
L 530.123944 35.433986 
L 532.009016 35.351678 
L 533.894087 35.277569 
L 535.779159 35.208664 
L 537.66423 35.14213 
L 539.549302 35.081547 
L 541.434373 35.026397 
L 543.319445 34.985024 
L 545.204516 34.951037 
L 547.089587 34.918125 
" clip-path="url(#p07f619ecf0)" style="fill: none; stroke: #800080; stroke-width: 2.5; stroke-linecap: square"/>
   </g>
   <g id="line2d_21">
    <path d="M 315.50856 160.918125 
L 558.117255 160.918125 
" clip-path="url(#p07f619ecf0)" style="fill: none; stroke: #d3d3d3; stroke-width: 0.25; stroke-linecap: square"/>
   </g>
   <g id="line2d_22">
    <path d="M 339.731728 299.518125 
L 339.731728 22.318125 
" clip-path="url(#p07f619ecf0)" style="fill: none; stroke-dasharray: 2,3.3; stroke-dashoffset: 0; stroke: #1f77b4; stroke-width: 2"/>
   </g>
   <g id="line2d_23">
    <path d="M 315.50856 110.518125 
L 558.117255 110.518125 
" clip-path="url(#p07f619ecf0)" style="fill: none; stroke: #d3d3d3; stroke-width: 0.25; stroke-linecap: square"/>
   </g>
   <g id="line2d_24">
    <path d="M 362.352585 299.518125 
L 362.352585 22.318125 
" clip-path="url(#p07f619ecf0)" style="fill: none; stroke-dasharray: 2,3.3; stroke-dashoffset: 0; stroke: #ff7f0e; stroke-width: 2"/>
   </g>
   <g id="line2d_25">
    <path d="M 315.50856 60.118125 
L 558.117255 60.118125 
" clip-path="url(#p07f619ecf0)" style="fill: none; stroke: #d3d3d3; stroke-width: 0.25; stroke-linecap: square"/>
   </g>
   <g id="line2d_26">
    <path d="M 417.019657 299.518125 
L 417.019657 22.318125 
" clip-path="url(#p07f619ecf0)" style="fill: none; stroke-dasharray: 2,3.3; stroke-dashoffset: 0; stroke: #2ca02c; stroke-width: 2"/>
   </g>
   <g id="patch_11">
    <path d="M 315.50856 299.518125 
L 558.117255 299.518125 
" style="fill: none; stroke: #000000; stroke-width: 0.8; stroke-linejoin: miter; stroke-linecap: square"/>
   </g>
   <g id="text_24">
    <g id="patch_12">
     <path d="M 326.536228 164.443428 
L 335.367378 164.443428 
Q 337.449378 164.443428 337.449378 162.361428 
L 337.449378 155.644809 
Q 337.449378 153.562809 335.367378 153.562809 
L 326.536228 153.562809 
Q 324.454228 153.562809 324.454228 155.644809 
L 324.454228 162.361428 
Q 324.454228 164.443428 326.536228 164.443428 
z
" style="fill: #ffffff; opacity: 0.8"/>
    </g>
    <!-- 50 -->
    <g transform="translate(326.536228 160.918125)scale(0.0694 -0.0694)">
     <use xlink:href="#DejaVuSans-35"/>
     <use xlink:href="#DejaVuSans-30" x="63.623047"/>
    </g>
   </g>
   <g id="text_25">
    <g id="patch_13">
     <path d="M 347.512312 225.122264 
L 347.512312 160.987158 
Q 347.512312 159.250158 345.775312 159.250158 
L 333.688144 159.250158 
Q 331.951144 159.250158 331.951144 160.987158 
L 331.951144 225.122264 
Q 331.951144 226.859264 333.688144 226.859264 
L 345.775312 226.859264 
Q 347.512312 226.859264 347.512312 225.122264 
z
" style="fill: #ffffff; opacity: 0.8"/>
    </g>
    <!-- 7 components explain -->
    <g transform="translate(338.087639 225.122264)rotate(-90)scale(0.0579 -0.0579)">
     <use xlink:href="#DejaVuSans-37"/>
     <use xlink:href="#DejaVuSans-20" x="63.623047"/>
     <use xlink:href="#DejaVuSans-63" x="95.410156"/>
     <use xlink:href="#DejaVuSans-6f" x="150.390625"/>
     <use xlink:href="#DejaVuSans-6d" x="211.572266"/>
     <use xlink:href="#DejaVuSans-70" x="308.984375"/>
     <use xlink:href="#DejaVuSans-6f" x="372.460938"/>
     <use xlink:href="#DejaVuSans-6e" x="433.642578"/>
     <use xlink:href="#DejaVuSans-65" x="497.021484"/>
     <use xlink:href="#DejaVuSans-6e" x="558.544922"/>
     <use xlink:href="#DejaVuSans-74" x="621.923828"/>
     <use xlink:href="#DejaVuSans-73" x="661.132812"/>
     <use xlink:href="#DejaVuSans-20" x="713.232422"/>
     <use xlink:href="#DejaVuSans-65" x="745.019531"/>
     <use xlink:href="#DejaVuSans-78" x="804.792969"/>
     <use xlink:href="#DejaVuSans-70" x="863.972656"/>
     <use xlink:href="#DejaVuSans-6c" x="927.449219"/>
     <use xlink:href="#DejaVuSans-61" x="955.232422"/>
     <use xlink:href="#DejaVuSans-69" x="1016.511719"/>
     <use xlink:href="#DejaVuSans-6e" x="1044.294922"/>
    </g>
    <!-- 50% of variance -->
    <g transform="translate(344.571173 216.583823)rotate(-90)scale(0.0579 -0.0579)">
     <use xlink:href="#DejaVuSans-35"/>
     <use xlink:href="#DejaVuSans-30" x="63.623047"/>
     <use xlink:href="#DejaVuSans-25" x="127.246094"/>
     <use xlink:href="#DejaVuSans-20" x="222.265625"/>
     <use xlink:href="#DejaVuSans-6f" x="254.052734"/>
     <use xlink:href="#DejaVuSans-66" x="315.234375"/>
     <use xlink:href="#DejaVuSans-20" x="350.439453"/>
     <use xlink:href="#DejaVuSans-76" x="382.226562"/>
     <use xlink:href="#DejaVuSans-61" x="441.40625"/>
     <use xlink:href="#DejaVuSans-72" x="502.685547"/>
     <use xlink:href="#DejaVuSans-69" x="543.798828"/>
     <use xlink:href="#DejaVuSans-61" x="571.582031"/>
     <use xlink:href="#DejaVuSans-6e" x="632.861328"/>
     <use xlink:href="#DejaVuSans-63" x="696.240234"/>
     <use xlink:href="#DejaVuSans-65" x="751.220703"/>
    </g>
   </g>
   <g id="text_26">
    <g id="patch_14">
     <path d="M 326.536228 114.043428 
L 335.367378 114.043428 
Q 337.449378 114.043428 337.449378 111.961428 
L 337.449378 105.244809 
Q 337.449378 103.162809 335.367378 103.162809 
L 326.536228 103.162809 
Q 324.454228 103.162809 324.454228 105.244809 
L 324.454228 111.961428 
Q 324.454228 114.043428 326.536228 114.043428 
z
" style="fill: #ffffff; opacity: 0.8"/>
    </g>
    <!-- 70 -->
    <g transform="translate(326.536228 110.518125)scale(0.0694 -0.0694)">
     <use xlink:href="#DejaVuSans-37"/>
     <use xlink:href="#DejaVuSans-30" x="63.623047"/>
    </g>
   </g>
   <g id="text_27">
    <g id="patch_15">
     <path d="M 370.133169 225.122264 
L 370.133169 157.30327 
Q 370.133169 155.56627 368.396169 155.56627 
L 356.309001 155.56627 
Q 354.572001 155.56627 354.572001 157.30327 
L 354.572001 225.122264 
Q 354.572001 226.859264 356.309001 226.859264 
L 368.396169 226.859264 
Q 370.133169 226.859264 370.133169 225.122264 
z
" style="fill: #ffffff; opacity: 0.8"/>
    </g>
    <!-- 19 components explain -->
    <g transform="translate(360.708497 225.122264)rotate(-90)scale(0.0579 -0.0579)">
     <use xlink:href="#DejaVuSans-31"/>
     <use xlink:href="#DejaVuSans-39" x="63.623047"/>
     <use xlink:href="#DejaVuSans-20" x="127.246094"/>
     <use xlink:href="#DejaVuSans-63" x="159.033203"/>
     <use xlink:href="#DejaVuSans-6f" x="214.013672"/>
     <use xlink:href="#DejaVuSans-6d" x="275.195312"/>
     <use xlink:href="#DejaVuSans-70" x="372.607422"/>
     <use xlink:href="#DejaVuSans-6f" x="436.083984"/>
     <use xlink:href="#DejaVuSans-6e" x="497.265625"/>
     <use xlink:href="#DejaVuSans-65" x="560.644531"/>
     <use xlink:href="#DejaVuSans-6e" x="622.167969"/>
     <use xlink:href="#DejaVuSans-74" x="685.546875"/>
     <use xlink:href="#DejaVuSans-73" x="724.755859"/>
     <use xlink:href="#DejaVuSans-20" x="776.855469"/>
     <use xlink:href="#DejaVuSans-65" x="808.642578"/>
     <use xlink:href="#DejaVuSans-78" x="868.416016"/>
     <use xlink:href="#DejaVuSans-70" x="927.595703"/>
     <use xlink:href="#DejaVuSans-6c" x="991.072266"/>
     <use xlink:href="#DejaVuSans-61" x="1018.855469"/>
     <use xlink:href="#DejaVuSans-69" x="1080.134766"/>
     <use xlink:href="#DejaVuSans-6e" x="1107.917969"/>
    </g>
    <!-- 70% of variance -->
    <g transform="translate(367.19203 214.74188)rotate(-90)scale(0.0579 -0.0579)">
     <use xlink:href="#DejaVuSans-37"/>
     <use xlink:href="#DejaVuSans-30" x="63.623047"/>
     <use xlink:href="#DejaVuSans-25" x="127.246094"/>
     <use xlink:href="#DejaVuSans-20" x="222.265625"/>
     <use xlink:href="#DejaVuSans-6f" x="254.052734"/>
     <use xlink:href="#DejaVuSans-66" x="315.234375"/>
     <use xlink:href="#DejaVuSans-20" x="350.439453"/>
     <use xlink:href="#DejaVuSans-76" x="382.226562"/>
     <use xlink:href="#DejaVuSans-61" x="441.40625"/>
     <use xlink:href="#DejaVuSans-72" x="502.685547"/>
     <use xlink:href="#DejaVuSans-69" x="543.798828"/>
     <use xlink:href="#DejaVuSans-61" x="571.582031"/>
     <use xlink:href="#DejaVuSans-6e" x="632.861328"/>
     <use xlink:href="#DejaVuSans-63" x="696.240234"/>
     <use xlink:href="#DejaVuSans-65" x="751.220703"/>
    </g>
   </g>
   <g id="text_28">
    <g id="patch_16">
     <path d="M 326.536228 63.643428 
L 335.367378 63.643428 
Q 337.449378 63.643428 337.449378 61.561428 
L 337.449378 54.844809 
Q 337.449378 52.762809 335.367378 52.762809 
L 326.536228 52.762809 
Q 324.454228 52.762809 324.454228 54.844809 
L 324.454228 61.561428 
Q 324.454228 63.643428 326.536228 63.643428 
z
" style="fill: #ffffff; opacity: 0.8"/>
    </g>
    <!-- 90 -->
    <g transform="translate(326.536228 60.118125)scale(0.0694 -0.0694)">
     <use xlink:href="#DejaVuSans-39"/>
     <use xlink:href="#DejaVuSans-30" x="63.623047"/>
    </g>
   </g>
   <g id="text_29">
    <g id="patch_17">
     <path d="M 424.800241 225.122264 
L 424.800241 157.30327 
Q 424.800241 155.56627 423.063241 155.56627 
L 410.976073 155.56627 
Q 409.239073 155.56627 409.239073 157.30327 
L 409.239073 225.122264 
Q 409.239073 226.859264 410.976073 226.859264 
L 423.063241 226.859264 
Q 424.800241 226.859264 424.800241 225.122264 
z
" style="fill: #ffffff; opacity: 0.8"/>
    </g>
    <!-- 48 components explain -->
    <g transform="translate(415.375569 225.122264)rotate(-90)scale(0.0579 -0.0579)">
     <use xlink:href="#DejaVuSans-34"/>
     <use xlink:href="#DejaVuSans-38" x="63.623047"/>
     <use xlink:href="#DejaVuSans-20" x="127.246094"/>
     <use xlink:href="#DejaVuSans-63" x="159.033203"/>
     <use xlink:href="#DejaVuSans-6f" x="214.013672"/>
     <use xlink:href="#DejaVuSans-6d" x="275.195312"/>
     <use xlink:href="#DejaVuSans-70" x="372.607422"/>
     <use xlink:href="#DejaVuSans-6f" x="436.083984"/>
     <use xlink:href="#DejaVuSans-6e" x="497.265625"/>
     <use xlink:href="#DejaVuSans-65" x="560.644531"/>
     <use xlink:href="#DejaVuSans-6e" x="622.167969"/>
     <use xlink:href="#DejaVuSans-74" x="685.546875"/>
     <use xlink:href="#DejaVuSans-73" x="724.755859"/>
     <use xlink:href="#DejaVuSans-20" x="776.855469"/>
     <use xlink:href="#DejaVuSans-65" x="808.642578"/>
     <use xlink:href="#DejaVuSans-78" x="868.416016"/>
     <use xlink:href="#DejaVuSans-70" x="927.595703"/>
     <use xlink:href="#DejaVuSans-6c" x="991.072266"/>
     <use xlink:href="#DejaVuSans-61" x="1018.855469"/>
     <use xlink:href="#DejaVuSans-69" x="1080.134766"/>
     <use xlink:href="#DejaVuSans-6e" x="1107.917969"/>
    </g>
    <!-- 90% of variance -->
    <g transform="translate(421.859102 214.74188)rotate(-90)scale(0.0579 -0.0579)">
     <use xlink:href="#DejaVuSans-39"/>
     <use xlink:href="#DejaVuSans-30" x="63.623047"/>
     <use xlink:href="#DejaVuSans-25" x="127.246094"/>
     <use xlink:href="#DejaVuSans-20" x="222.265625"/>
     <use xlink:href="#DejaVuSans-6f" x="254.052734"/>
     <use xlink:href="#DejaVuSans-66" x="315.234375"/>
     <use xlink:href="#DejaVuSans-20" x="350.439453"/>
     <use xlink:href="#DejaVuSans-76" x="382.226562"/>
     <use xlink:href="#DejaVuSans-61" x="441.40625"/>
     <use xlink:href="#DejaVuSans-72" x="502.685547"/>
     <use xlink:href="#DejaVuSans-69" x="543.798828"/>
     <use xlink:href="#DejaVuSans-61" x="571.582031"/>
     <use xlink:href="#DejaVuSans-6e" x="632.861328"/>
     <use xlink:href="#DejaVuSans-63" x="696.240234"/>
     <use xlink:href="#DejaVuSans-65" x="751.220703"/>
    </g>
   </g>
   <g id="text_30">
    <!-- aCompCor (WM mask) -->
    <g transform="translate(369.567908 16.318125)scale(0.12 -0.12)">
     <defs>
      <path id="DejaVuSans-57" d="M 213 4666 
L 850 4666 
L 1831 722 
L 2809 4666 
L 3519 4666 
L 4500 722 
L 5478 4666 
L 6119 4666 
L 4947 0 
L 4153 0 
L 3169 4050 
L 2175 0 
L 1381 0 
L 213 4666 
z
" transform="scale(0.015625)"/>
      <path id="DejaVuSans-4d" d="M 628 4666 
L 1569 4666 
L 2759 1491 
L 3956 4666 
L 4897 4666 
L 4897 0 
L 4281 0 
L 4281 4097 
L 3078 897 
L 2444 897 
L 1241 4097 
L 1241 0 
L 628 0 
L 628 4666 
z
" transform="scale(0.015625)"/>
     </defs>
     <use xlink:href="#DejaVuSans-61"/>
     <use xlink:href="#DejaVuSans-43" x="61.279297"/>
     <use xlink:href="#DejaVuSans-6f" x="131.103516"/>
     <use xlink:href="#DejaVuSans-6d" x="192.285156"/>
     <use xlink:href="#DejaVuSans-70" x="289.697266"/>
     <use xlink:href="#DejaVuSans-43" x="353.173828"/>
     <use xlink:href="#DejaVuSans-6f" x="422.998047"/>
     <use xlink:href="#DejaVuSans-72" x="484.179688"/>
     <use xlink:href="#DejaVuSans-20" x="525.292969"/>
     <use xlink:href="#DejaVuSans-28" x="557.080078"/>
     <use xlink:href="#DejaVuSans-57" x="596.09375"/>
     <use xlink:href="#DejaVuSans-4d" x="694.970703"/>
     <use xlink:href="#DejaVuSans-20" x="781.25"/>
     <use xlink:href="#DejaVuSans-6d" x="813.037109"/>
     <use xlink:href="#DejaVuSans-61" x="910.449219"/>
     <use xlink:href="#DejaVuSans-73" x="971.728516"/>
     <use xlink:href="#DejaVuSans-6b" x="1023.828125"/>
     <use xlink:href="#DejaVuSans-29" x="1081.738281"/>
    </g>
   </g>
  </g>
  <g id="axes_3">
   <g id="patch_18">
    <path d="M 606.638995 299.518125 
L 849.24769 299.518125 
L 849.24769 22.318125 
L 606.638995 22.318125 
z
" style="fill: #ffffff"/>
   </g>
   <g id="matplotlib.axis_5">
    <g id="xtick_13">
     <g id="line2d_27">
      <g>
       <use xlink:href="#md7265343bc" x="617.666663" y="299.518125" style="stroke: #000000; stroke-width: 0.8"/>
      </g>
     </g>
     <g id="text_31">
      <!-- 0 -->
      <g transform="translate(619.581669 310.9337)rotate(-90)scale(0.0694 -0.0694)">
       <use xlink:href="#DejaVuSans-30"/>
      </g>
     </g>
    </g>
    <g id="xtick_14">
     <g id="line2d_28">
      <g>
       <use xlink:href="#md7265343bc" x="671.460165" y="299.518125" style="stroke: #000000; stroke-width: 0.8"/>
      </g>
     </g>
     <g id="text_32">
      <!-- 50 -->
      <g transform="translate(673.375171 315.349275)rotate(-90)scale(0.0694 -0.0694)">
       <use xlink:href="#DejaVuSans-35"/>
       <use xlink:href="#DejaVuSans-30" x="63.623047"/>
      </g>
     </g>
    </g>
    <g id="xtick_15">
     <g id="line2d_29">
      <g>
       <use xlink:href="#md7265343bc" x="725.253667" y="299.518125" style="stroke: #000000; stroke-width: 0.8"/>
      </g>
     </g>
     <g id="text_33">
      <!-- 100 -->
      <g transform="translate(727.168674 319.76485)rotate(-90)scale(0.0694 -0.0694)">
       <use xlink:href="#DejaVuSans-31"/>
       <use xlink:href="#DejaVuSans-30" x="63.623047"/>
       <use xlink:href="#DejaVuSans-30" x="127.246094"/>
      </g>
     </g>
    </g>
    <g id="xtick_16">
     <g id="line2d_30">
      <g>
       <use xlink:href="#md7265343bc" x="779.04717" y="299.518125" style="stroke: #000000; stroke-width: 0.8"/>
      </g>
     </g>
     <g id="text_34">
      <!-- 150 -->
      <g transform="translate(780.962176 319.76485)rotate(-90)scale(0.0694 -0.0694)">
       <use xlink:href="#DejaVuSans-31"/>
       <use xlink:href="#DejaVuSans-35" x="63.623047"/>
       <use xlink:href="#DejaVuSans-30" x="127.246094"/>
      </g>
     </g>
    </g>
    <g id="xtick_17">
     <g id="line2d_31">
      <g>
       <use xlink:href="#md7265343bc" x="832.840672" y="299.518125" style="stroke: #000000; stroke-width: 0.8"/>
      </g>
     </g>
     <g id="text_35">
      <!-- 200 -->
      <g transform="translate(834.755678 319.76485)rotate(-90)scale(0.0694 -0.0694)">
       <use xlink:href="#DejaVuSans-32"/>
       <use xlink:href="#DejaVuSans-30" x="63.623047"/>
       <use xlink:href="#DejaVuSans-30" x="127.246094"/>
      </g>
     </g>
    </g>
    <g id="text_36">
     <!-- number of components in model -->
     <g transform="translate(646.234749 331.363288)scale(0.1 -0.1)">
      <use xlink:href="#DejaVuSans-6e"/>
      <use xlink:href="#DejaVuSans-75" x="63.378906"/>
      <use xlink:href="#DejaVuSans-6d" x="126.757812"/>
      <use xlink:href="#DejaVuSans-62" x="224.169922"/>
      <use xlink:href="#DejaVuSans-65" x="287.646484"/>
      <use xlink:href="#DejaVuSans-72" x="349.169922"/>
      <use xlink:href="#DejaVuSans-20" x="390.283203"/>
      <use xlink:href="#DejaVuSans-6f" x="422.070312"/>
      <use xlink:href="#DejaVuSans-66" x="483.251953"/>
      <use xlink:href="#DejaVuSans-20" x="518.457031"/>
      <use xlink:href="#DejaVuSans-63" x="550.244141"/>
      <use xlink:href="#DejaVuSans-6f" x="605.224609"/>
      <use xlink:href="#DejaVuSans-6d" x="666.40625"/>
      <use xlink:href="#DejaVuSans-70" x="763.818359"/>
      <use xlink:href="#DejaVuSans-6f" x="827.294922"/>
      <use xlink:href="#DejaVuSans-6e" x="888.476562"/>
      <use xlink:href="#DejaVuSans-65" x="951.855469"/>
      <use xlink:href="#DejaVuSans-6e" x="1013.378906"/>
      <use xlink:href="#DejaVuSans-74" x="1076.757812"/>
      <use xlink:href="#DejaVuSans-73" x="1115.966797"/>
      <use xlink:href="#DejaVuSans-20" x="1168.066406"/>
      <use xlink:href="#DejaVuSans-69" x="1199.853516"/>
      <use xlink:href="#DejaVuSans-6e" x="1227.636719"/>
      <use xlink:href="#DejaVuSans-20" x="1291.015625"/>
      <use xlink:href="#DejaVuSans-6d" x="1322.802734"/>
      <use xlink:href="#DejaVuSans-6f" x="1420.214844"/>
      <use xlink:href="#DejaVuSans-64" x="1481.396484"/>
      <use xlink:href="#DejaVuSans-65" x="1544.873047"/>
      <use xlink:href="#DejaVuSans-6c" x="1606.396484"/>
     </g>
    </g>
   </g>
   <g id="matplotlib.axis_6">
    <g id="text_37">
     <!-- cumulative variance explained (%) -->
     <g transform="translate(597.059307 248.043906)rotate(-90)scale(0.1 -0.1)">
      <use xlink:href="#DejaVuSans-63"/>
      <use xlink:href="#DejaVuSans-75" x="54.980469"/>
      <use xlink:href="#DejaVuSans-6d" x="118.359375"/>
      <use xlink:href="#DejaVuSans-75" x="215.771484"/>
      <use xlink:href="#DejaVuSans-6c" x="279.150391"/>
      <use xlink:href="#DejaVuSans-61" x="306.933594"/>
      <use xlink:href="#DejaVuSans-74" x="368.212891"/>
      <use xlink:href="#DejaVuSans-69" x="407.421875"/>
      <use xlink:href="#DejaVuSans-76" x="435.205078"/>
      <use xlink:href="#DejaVuSans-65" x="494.384766"/>
      <use xlink:href="#DejaVuSans-20" x="555.908203"/>
      <use xlink:href="#DejaVuSans-76" x="587.695312"/>
      <use xlink:href="#DejaVuSans-61" x="646.875"/>
      <use xlink:href="#DejaVuSans-72" x="708.154297"/>
      <use xlink:href="#DejaVuSans-69" x="749.267578"/>
      <use xlink:href="#DejaVuSans-61" x="777.050781"/>
      <use xlink:href="#DejaVuSans-6e" x="838.330078"/>
      <use xlink:href="#DejaVuSans-63" x="901.708984"/>
      <use xlink:href="#DejaVuSans-65" x="956.689453"/>
      <use xlink:href="#DejaVuSans-20" x="1018.212891"/>
      <use xlink:href="#DejaVuSans-65" x="1050"/>
      <use xlink:href="#DejaVuSans-78" x="1109.773438"/>
      <use xlink:href="#DejaVuSans-70" x="1168.953125"/>
      <use xlink:href="#DejaVuSans-6c" x="1232.429688"/>
      <use xlink:href="#DejaVuSans-61" x="1260.212891"/>
      <use xlink:href="#DejaVuSans-69" x="1321.492188"/>
      <use xlink:href="#DejaVuSans-6e" x="1349.275391"/>
      <use xlink:href="#DejaVuSans-65" x="1412.654297"/>
      <use xlink:href="#DejaVuSans-64" x="1474.177734"/>
      <use xlink:href="#DejaVuSans-20" x="1537.654297"/>
      <use xlink:href="#DejaVuSans-28" x="1569.441406"/>
      <use xlink:href="#DejaVuSans-25" x="1608.455078"/>
      <use xlink:href="#DejaVuSans-29" x="1703.474609"/>
     </g>
    </g>
   </g>
   <g id="line2d_32">
    <path d="M 617.666663 286.918125 
L 619.818403 213.997495 
L 620.894273 191.554757 
L 621.970143 180.137433 
L 623.046013 170.98976 
L 624.121883 163.672088 
L 626.273623 151.544235 
L 627.349493 146.83841 
L 629.501233 139.10867 
L 630.577103 135.663092 
L 632.728843 130.216262 
L 634.880583 125.259821 
L 637.032323 121.105027 
L 640.259934 115.480462 
L 642.411674 112.140579 
L 645.639284 107.550899 
L 648.866894 103.552792 
L 654.246244 97.55452 
L 657.473854 94.285238 
L 661.777334 90.289129 
L 667.156685 85.628733 
L 672.536035 81.343919 
L 676.839515 78.191129 
L 682.218865 74.5409 
L 687.598216 71.136559 
L 692.977566 68.011783 
L 699.432786 64.559925 
L 704.812136 61.931213 
L 711.267357 59.040139 
L 718.798447 55.926115 
L 725.253667 53.489044 
L 731.708888 51.244136 
L 740.315848 48.632669 
L 747.846938 46.566698 
L 755.378029 44.70587 
L 762.909119 43.056958 
L 771.516079 41.421719 
L 780.12304 39.976903 
L 789.80587 38.570125 
L 798.41283 37.515427 
L 810.247401 36.355072 
L 821.006101 35.523298 
L 831.764802 34.918125 
L 838.220022 34.918125 
L 838.220022 34.918125 
" clip-path="url(#pae4065677b)" style="fill: none; stroke: #800080; stroke-width: 2.5; stroke-linecap: square"/>
   </g>
   <g id="line2d_33">
    <path d="M 606.638995 160.918125 
L 849.24769 160.918125 
" clip-path="url(#pae4065677b)" style="fill: none; stroke: #d3d3d3; stroke-width: 0.25; stroke-linecap: square"/>
   </g>
   <g id="line2d_34">
    <path d="M 625.197753 299.518125 
L 625.197753 22.318125 
" clip-path="url(#pae4065677b)" style="fill: none; stroke-dasharray: 2,3.3; stroke-dashoffset: 0; stroke: #1f77b4; stroke-width: 2"/>
   </g>
   <g id="line2d_35">
    <path d="M 606.638995 110.518125 
L 849.24769 110.518125 
" clip-path="url(#pae4065677b)" style="fill: none; stroke: #d3d3d3; stroke-width: 0.25; stroke-linecap: square"/>
   </g>
   <g id="line2d_36">
    <path d="M 644.563414 299.518125 
L 644.563414 22.318125 
" clip-path="url(#pae4065677b)" style="fill: none; stroke-dasharray: 2,3.3; stroke-dashoffset: 0; stroke: #ff7f0e; stroke-width: 2"/>
   </g>
   <g id="line2d_37">
    <path d="M 606.638995 60.118125 
L 849.24769 60.118125 
" clip-path="url(#pae4065677b)" style="fill: none; stroke: #d3d3d3; stroke-width: 0.25; stroke-linecap: square"/>
   </g>
   <g id="line2d_38">
    <path d="M 709.115617 299.518125 
L 709.115617 22.318125 
" clip-path="url(#pae4065677b)" style="fill: none; stroke-dasharray: 2,3.3; stroke-dashoffset: 0; stroke: #2ca02c; stroke-width: 2"/>
   </g>
   <g id="patch_19">
    <path d="M 606.638995 299.518125 
L 849.24769 299.518125 
" style="fill: none; stroke: #000000; stroke-width: 0.8; stroke-linejoin: miter; stroke-linecap: square"/>
   </g>
   <g id="text_38">
    <g id="patch_20">
     <path d="M 617.666663 164.443428 
L 626.497813 164.443428 
Q 628.579813 164.443428 628.579813 162.361428 
L 628.579813 155.644809 
Q 628.579813 153.562809 626.497813 153.562809 
L 617.666663 153.562809 
Q 615.584663 153.562809 615.584663 155.644809 
L 615.584663 162.361428 
Q 615.584663 164.443428 617.666663 164.443428 
z
" style="fill: #ffffff; opacity: 0.8"/>
    </g>
    <!-- 50 -->
    <g transform="translate(617.666663 160.918125)scale(0.0694 -0.0694)">
     <use xlink:href="#DejaVuSans-35"/>
     <use xlink:href="#DejaVuSans-30" x="63.623047"/>
    </g>
   </g>
   <g id="text_39">
    <g id="patch_21">
     <path d="M 632.978337 225.122264 
L 632.978337 160.987158 
Q 632.978337 159.250158 631.241337 159.250158 
L 619.154169 159.250158 
Q 617.417169 159.250158 617.417169 160.987158 
L 617.417169 225.122264 
Q 617.417169 226.859264 619.154169 226.859264 
L 631.241337 226.859264 
Q 632.978337 226.859264 632.978337 225.122264 
z
" style="fill: #ffffff; opacity: 0.8"/>
    </g>
    <!-- 7 components explain -->
    <g transform="translate(623.553664 225.122264)rotate(-90)scale(0.0579 -0.0579)">
     <use xlink:href="#DejaVuSans-37"/>
     <use xlink:href="#DejaVuSans-20" x="63.623047"/>
     <use xlink:href="#DejaVuSans-63" x="95.410156"/>
     <use xlink:href="#DejaVuSans-6f" x="150.390625"/>
     <use xlink:href="#DejaVuSans-6d" x="211.572266"/>
     <use xlink:href="#DejaVuSans-70" x="308.984375"/>
     <use xlink:href="#DejaVuSans-6f" x="372.460938"/>
     <use xlink:href="#DejaVuSans-6e" x="433.642578"/>
     <use xlink:href="#DejaVuSans-65" x="497.021484"/>
     <use xlink:href="#DejaVuSans-6e" x="558.544922"/>
     <use xlink:href="#DejaVuSans-74" x="621.923828"/>
     <use xlink:href="#DejaVuSans-73" x="661.132812"/>
     <use xlink:href="#DejaVuSans-20" x="713.232422"/>
     <use xlink:href="#DejaVuSans-65" x="745.019531"/>
     <use xlink:href="#DejaVuSans-78" x="804.792969"/>
     <use xlink:href="#DejaVuSans-70" x="863.972656"/>
     <use xlink:href="#DejaVuSans-6c" x="927.449219"/>
     <use xlink:href="#DejaVuSans-61" x="955.232422"/>
     <use xlink:href="#DejaVuSans-69" x="1016.511719"/>
     <use xlink:href="#DejaVuSans-6e" x="1044.294922"/>
    </g>
    <!-- 50% of variance -->
    <g transform="translate(630.037198 216.583823)rotate(-90)scale(0.0579 -0.0579)">
     <use xlink:href="#DejaVuSans-35"/>
     <use xlink:href="#DejaVuSans-30" x="63.623047"/>
     <use xlink:href="#DejaVuSans-25" x="127.246094"/>
     <use xlink:href="#DejaVuSans-20" x="222.265625"/>
     <use xlink:href="#DejaVuSans-6f" x="254.052734"/>
     <use xlink:href="#DejaVuSans-66" x="315.234375"/>
     <use xlink:href="#DejaVuSans-20" x="350.439453"/>
     <use xlink:href="#DejaVuSans-76" x="382.226562"/>
     <use xlink:href="#DejaVuSans-61" x="441.40625"/>
     <use xlink:href="#DejaVuSans-72" x="502.685547"/>
     <use xlink:href="#DejaVuSans-69" x="543.798828"/>
     <use xlink:href="#DejaVuSans-61" x="571.582031"/>
     <use xlink:href="#DejaVuSans-6e" x="632.861328"/>
     <use xlink:href="#DejaVuSans-63" x="696.240234"/>
     <use xlink:href="#DejaVuSans-65" x="751.220703"/>
    </g>
   </g>
   <g id="text_40">
    <g id="patch_22">
     <path d="M 617.666663 114.043428 
L 626.497813 114.043428 
Q 628.579813 114.043428 628.579813 111.961428 
L 628.579813 105.244809 
Q 628.579813 103.162809 626.497813 103.162809 
L 617.666663 103.162809 
Q 615.584663 103.162809 615.584663 105.244809 
L 615.584663 111.961428 
Q 615.584663 114.043428 617.666663 114.043428 
z
" style="fill: #ffffff; opacity: 0.8"/>
    </g>
    <!-- 70 -->
    <g transform="translate(617.666663 110.518125)scale(0.0694 -0.0694)">
     <use xlink:href="#DejaVuSans-37"/>
     <use xlink:href="#DejaVuSans-30" x="63.623047"/>
    </g>
   </g>
   <g id="text_41">
    <g id="patch_23">
     <path d="M 652.343998 225.122264 
L 652.343998 157.30327 
Q 652.343998 155.56627 650.606998 155.56627 
L 638.51983 155.56627 
Q 636.78283 155.56627 636.78283 157.30327 
L 636.78283 225.122264 
Q 636.78283 226.859264 638.51983 226.859264 
L 650.606998 226.859264 
Q 652.343998 226.859264 652.343998 225.122264 
z
" style="fill: #ffffff; opacity: 0.8"/>
    </g>
    <!-- 25 components explain -->
    <g transform="translate(642.919325 225.122264)rotate(-90)scale(0.0579 -0.0579)">
     <use xlink:href="#DejaVuSans-32"/>
     <use xlink:href="#DejaVuSans-35" x="63.623047"/>
     <use xlink:href="#DejaVuSans-20" x="127.246094"/>
     <use xlink:href="#DejaVuSans-63" x="159.033203"/>
     <use xlink:href="#DejaVuSans-6f" x="214.013672"/>
     <use xlink:href="#DejaVuSans-6d" x="275.195312"/>
     <use xlink:href="#DejaVuSans-70" x="372.607422"/>
     <use xlink:href="#DejaVuSans-6f" x="436.083984"/>
     <use xlink:href="#DejaVuSans-6e" x="497.265625"/>
     <use xlink:href="#DejaVuSans-65" x="560.644531"/>
     <use xlink:href="#DejaVuSans-6e" x="622.167969"/>
     <use xlink:href="#DejaVuSans-74" x="685.546875"/>
     <use xlink:href="#DejaVuSans-73" x="724.755859"/>
     <use xlink:href="#DejaVuSans-20" x="776.855469"/>
     <use xlink:href="#DejaVuSans-65" x="808.642578"/>
     <use xlink:href="#DejaVuSans-78" x="868.416016"/>
     <use xlink:href="#DejaVuSans-70" x="927.595703"/>
     <use xlink:href="#DejaVuSans-6c" x="991.072266"/>
     <use xlink:href="#DejaVuSans-61" x="1018.855469"/>
     <use xlink:href="#DejaVuSans-69" x="1080.134766"/>
     <use xlink:href="#DejaVuSans-6e" x="1107.917969"/>
    </g>
    <!-- 70% of variance -->
    <g transform="translate(649.402859 214.74188)rotate(-90)scale(0.0579 -0.0579)">
     <use xlink:href="#DejaVuSans-37"/>
     <use xlink:href="#DejaVuSans-30" x="63.623047"/>
     <use xlink:href="#DejaVuSans-25" x="127.246094"/>
     <use xlink:href="#DejaVuSans-20" x="222.265625"/>
     <use xlink:href="#DejaVuSans-6f" x="254.052734"/>
     <use xlink:href="#DejaVuSans-66" x="315.234375"/>
     <use xlink:href="#DejaVuSans-20" x="350.439453"/>
     <use xlink:href="#DejaVuSans-76" x="382.226562"/>
     <use xlink:href="#DejaVuSans-61" x="441.40625"/>
     <use xlink:href="#DejaVuSans-72" x="502.685547"/>
     <use xlink:href="#DejaVuSans-69" x="543.798828"/>
     <use xlink:href="#DejaVuSans-61" x="571.582031"/>
     <use xlink:href="#DejaVuSans-6e" x="632.861328"/>
     <use xlink:href="#DejaVuSans-63" x="696.240234"/>
     <use xlink:href="#DejaVuSans-65" x="751.220703"/>
    </g>
   </g>
   <g id="text_42">
    <g id="patch_24">
     <path d="M 617.666663 63.643428 
L 626.497813 63.643428 
Q 628.579813 63.643428 628.579813 61.561428 
L 628.579813 54.844809 
Q 628.579813 52.762809 626.497813 52.762809 
L 617.666663 52.762809 
Q 615.584663 52.762809 615.584663 54.844809 
L 615.584663 61.561428 
Q 615.584663 63.643428 617.666663 63.643428 
z
" style="fill: #ffffff; opacity: 0.8"/>
    </g>
    <!-- 90 -->
    <g transform="translate(617.666663 60.118125)scale(0.0694 -0.0694)">
     <use xlink:href="#DejaVuSans-39"/>
     <use xlink:href="#DejaVuSans-30" x="63.623047"/>
    </g>
   </g>
   <g id="text_43">
    <g id="patch_25">
     <path d="M 716.8962 225.122264 
L 716.8962 157.30327 
Q 716.8962 155.56627 715.1592 155.56627 
L 703.072033 155.56627 
Q 701.335033 155.56627 701.335033 157.30327 
L 701.335033 225.122264 
Q 701.335033 226.859264 703.072033 226.859264 
L 715.1592 226.859264 
Q 716.8962 226.859264 716.8962 225.122264 
z
" style="fill: #ffffff; opacity: 0.8"/>
    </g>
    <!-- 85 components explain -->
    <g transform="translate(707.471528 225.122264)rotate(-90)scale(0.0579 -0.0579)">
     <use xlink:href="#DejaVuSans-38"/>
     <use xlink:href="#DejaVuSans-35" x="63.623047"/>
     <use xlink:href="#DejaVuSans-20" x="127.246094"/>
     <use xlink:href="#DejaVuSans-63" x="159.033203"/>
     <use xlink:href="#DejaVuSans-6f" x="214.013672"/>
     <use xlink:href="#DejaVuSans-6d" x="275.195312"/>
     <use xlink:href="#DejaVuSans-70" x="372.607422"/>
     <use xlink:href="#DejaVuSans-6f" x="436.083984"/>
     <use xlink:href="#DejaVuSans-6e" x="497.265625"/>
     <use xlink:href="#DejaVuSans-65" x="560.644531"/>
     <use xlink:href="#DejaVuSans-6e" x="622.167969"/>
     <use xlink:href="#DejaVuSans-74" x="685.546875"/>
     <use xlink:href="#DejaVuSans-73" x="724.755859"/>
     <use xlink:href="#DejaVuSans-20" x="776.855469"/>
     <use xlink:href="#DejaVuSans-65" x="808.642578"/>
     <use xlink:href="#DejaVuSans-78" x="868.416016"/>
     <use xlink:href="#DejaVuSans-70" x="927.595703"/>
     <use xlink:href="#DejaVuSans-6c" x="991.072266"/>
     <use xlink:href="#DejaVuSans-61" x="1018.855469"/>
     <use xlink:href="#DejaVuSans-69" x="1080.134766"/>
     <use xlink:href="#DejaVuSans-6e" x="1107.917969"/>
    </g>
    <!-- 90% of variance -->
    <g transform="translate(713.955061 214.74188)rotate(-90)scale(0.0579 -0.0579)">
     <use xlink:href="#DejaVuSans-39"/>
     <use xlink:href="#DejaVuSans-30" x="63.623047"/>
     <use xlink:href="#DejaVuSans-25" x="127.246094"/>
     <use xlink:href="#DejaVuSans-20" x="222.265625"/>
     <use xlink:href="#DejaVuSans-6f" x="254.052734"/>
     <use xlink:href="#DejaVuSans-66" x="315.234375"/>
     <use xlink:href="#DejaVuSans-20" x="350.439453"/>
     <use xlink:href="#DejaVuSans-76" x="382.226562"/>
     <use xlink:href="#DejaVuSans-61" x="441.40625"/>
     <use xlink:href="#DejaVuSans-72" x="502.685547"/>
     <use xlink:href="#DejaVuSans-69" x="543.798828"/>
     <use xlink:href="#DejaVuSans-61" x="571.582031"/>
     <use xlink:href="#DejaVuSans-6e" x="632.861328"/>
     <use xlink:href="#DejaVuSans-63" x="696.240234"/>
     <use xlink:href="#DejaVuSans-65" x="751.220703"/>
    </g>
   </g>
   <g id="text_44">
    <!-- aCompCor (combined mask) -->
    <g transform="translate(642.213655 16.318125)scale(0.12 -0.12)">
     <use xlink:href="#DejaVuSans-61"/>
     <use xlink:href="#DejaVuSans-43" x="61.279297"/>
     <use xlink:href="#DejaVuSans-6f" x="131.103516"/>
     <use xlink:href="#DejaVuSans-6d" x="192.285156"/>
     <use xlink:href="#DejaVuSans-70" x="289.697266"/>
     <use xlink:href="#DejaVuSans-43" x="353.173828"/>
     <use xlink:href="#DejaVuSans-6f" x="422.998047"/>
     <use xlink:href="#DejaVuSans-72" x="484.179688"/>
     <use xlink:href="#DejaVuSans-20" x="525.292969"/>
     <use xlink:href="#DejaVuSans-28" x="557.080078"/>
     <use xlink:href="#DejaVuSans-63" x="596.09375"/>
     <use xlink:href="#DejaVuSans-6f" x="651.074219"/>
     <use xlink:href="#DejaVuSans-6d" x="712.255859"/>
     <use xlink:href="#DejaVuSans-62" x="809.667969"/>
     <use xlink:href="#DejaVuSans-69" x="873.144531"/>
     <use xlink:href="#DejaVuSans-6e" x="900.927734"/>
     <use xlink:href="#DejaVuSans-65" x="964.306641"/>
     <use xlink:href="#DejaVuSans-64" x="1025.830078"/>
     <use xlink:href="#DejaVuSans-20" x="1089.306641"/>
     <use xlink:href="#DejaVuSans-6d" x="1121.09375"/>
     <use xlink:href="#DejaVuSans-61" x="1218.505859"/>
     <use xlink:href="#DejaVuSans-73" x="1279.785156"/>
     <use xlink:href="#DejaVuSans-6b" x="1331.884766"/>
     <use xlink:href="#DejaVuSans-29" x="1389.794922"/>
    </g>
   </g>
  </g>
  <g id="axes_4">
   <g id="patch_26">
    <path d="M 897.769429 299.518125 
L 1140.378125 299.518125 
L 1140.378125 22.318125 
L 897.769429 22.318125 
z
" style="fill: #ffffff"/>
   </g>
   <g id="matplotlib.axis_7">
    <g id="xtick_18">
     <g id="line2d_39">
      <g>
       <use xlink:href="#md7265343bc" x="908.797097" y="299.518125" style="stroke: #000000; stroke-width: 0.8"/>
      </g>
     </g>
     <g id="text_45">
      <!-- 0 -->
      <g transform="translate(910.712104 310.9337)rotate(-90)scale(0.0694 -0.0694)">
       <use xlink:href="#DejaVuSans-30"/>
      </g>
     </g>
    </g>
    <g id="xtick_19">
     <g id="line2d_40">
      <g>
       <use xlink:href="#md7265343bc" x="962.5906" y="299.518125" style="stroke: #000000; stroke-width: 0.8"/>
      </g>
     </g>
     <g id="text_46">
      <!-- 50 -->
      <g transform="translate(964.505606 315.349275)rotate(-90)scale(0.0694 -0.0694)">
       <use xlink:href="#DejaVuSans-35"/>
       <use xlink:href="#DejaVuSans-30" x="63.623047"/>
      </g>
     </g>
    </g>
    <g id="xtick_20">
     <g id="line2d_41">
      <g>
       <use xlink:href="#md7265343bc" x="1016.384102" y="299.518125" style="stroke: #000000; stroke-width: 0.8"/>
      </g>
     </g>
     <g id="text_47">
      <!-- 100 -->
      <g transform="translate(1018.299108 319.76485)rotate(-90)scale(0.0694 -0.0694)">
       <use xlink:href="#DejaVuSans-31"/>
       <use xlink:href="#DejaVuSans-30" x="63.623047"/>
       <use xlink:href="#DejaVuSans-30" x="127.246094"/>
      </g>
     </g>
    </g>
    <g id="xtick_21">
     <g id="line2d_42">
      <g>
       <use xlink:href="#md7265343bc" x="1070.177604" y="299.518125" style="stroke: #000000; stroke-width: 0.8"/>
      </g>
     </g>
     <g id="text_48">
      <!-- 150 -->
      <g transform="translate(1072.092611 319.76485)rotate(-90)scale(0.0694 -0.0694)">
       <use xlink:href="#DejaVuSans-31"/>
       <use xlink:href="#DejaVuSans-35" x="63.623047"/>
       <use xlink:href="#DejaVuSans-30" x="127.246094"/>
      </g>
     </g>
    </g>
    <g id="xtick_22">
     <g id="line2d_43">
      <g>
       <use xlink:href="#md7265343bc" x="1123.971107" y="299.518125" style="stroke: #000000; stroke-width: 0.8"/>
      </g>
     </g>
     <g id="text_49">
      <!-- 200 -->
      <g transform="translate(1125.886113 319.76485)rotate(-90)scale(0.0694 -0.0694)">
       <use xlink:href="#DejaVuSans-32"/>
       <use xlink:href="#DejaVuSans-30" x="63.623047"/>
       <use xlink:href="#DejaVuSans-30" x="127.246094"/>
      </g>
     </g>
    </g>
    <g id="text_50">
     <!-- number of components in model -->
     <g transform="translate(937.365183 331.363288)scale(0.1 -0.1)">
      <use xlink:href="#DejaVuSans-6e"/>
      <use xlink:href="#DejaVuSans-75" x="63.378906"/>
      <use xlink:href="#DejaVuSans-6d" x="126.757812"/>
      <use xlink:href="#DejaVuSans-62" x="224.169922"/>
      <use xlink:href="#DejaVuSans-65" x="287.646484"/>
      <use xlink:href="#DejaVuSans-72" x="349.169922"/>
      <use xlink:href="#DejaVuSans-20" x="390.283203"/>
      <use xlink:href="#DejaVuSans-6f" x="422.070312"/>
      <use xlink:href="#DejaVuSans-66" x="483.251953"/>
      <use xlink:href="#DejaVuSans-20" x="518.457031"/>
      <use xlink:href="#DejaVuSans-63" x="550.244141"/>
      <use xlink:href="#DejaVuSans-6f" x="605.224609"/>
      <use xlink:href="#DejaVuSans-6d" x="666.40625"/>
      <use xlink:href="#DejaVuSans-70" x="763.818359"/>
      <use xlink:href="#DejaVuSans-6f" x="827.294922"/>
      <use xlink:href="#DejaVuSans-6e" x="888.476562"/>
      <use xlink:href="#DejaVuSans-65" x="951.855469"/>
      <use xlink:href="#DejaVuSans-6e" x="1013.378906"/>
      <use xlink:href="#DejaVuSans-74" x="1076.757812"/>
      <use xlink:href="#DejaVuSans-73" x="1115.966797"/>
      <use xlink:href="#DejaVuSans-20" x="1168.066406"/>
      <use xlink:href="#DejaVuSans-69" x="1199.853516"/>
      <use xlink:href="#DejaVuSans-6e" x="1227.636719"/>
      <use xlink:href="#DejaVuSans-20" x="1291.015625"/>
      <use xlink:href="#DejaVuSans-6d" x="1322.802734"/>
      <use xlink:href="#DejaVuSans-6f" x="1420.214844"/>
      <use xlink:href="#DejaVuSans-64" x="1481.396484"/>
      <use xlink:href="#DejaVuSans-65" x="1544.873047"/>
      <use xlink:href="#DejaVuSans-6c" x="1606.396484"/>
     </g>
    </g>
   </g>
   <g id="matplotlib.axis_8">
    <g id="text_51">
     <!-- cumulative variance explained (%) -->
     <g transform="translate(888.189742 248.043906)rotate(-90)scale(0.1 -0.1)">
      <use xlink:href="#DejaVuSans-63"/>
      <use xlink:href="#DejaVuSans-75" x="54.980469"/>
      <use xlink:href="#DejaVuSans-6d" x="118.359375"/>
      <use xlink:href="#DejaVuSans-75" x="215.771484"/>
      <use xlink:href="#DejaVuSans-6c" x="279.150391"/>
      <use xlink:href="#DejaVuSans-61" x="306.933594"/>
      <use xlink:href="#DejaVuSans-74" x="368.212891"/>
      <use xlink:href="#DejaVuSans-69" x="407.421875"/>
      <use xlink:href="#DejaVuSans-76" x="435.205078"/>
      <use xlink:href="#DejaVuSans-65" x="494.384766"/>
      <use xlink:href="#DejaVuSans-20" x="555.908203"/>
      <use xlink:href="#DejaVuSans-76" x="587.695312"/>
      <use xlink:href="#DejaVuSans-61" x="646.875"/>
      <use xlink:href="#DejaVuSans-72" x="708.154297"/>
      <use xlink:href="#DejaVuSans-69" x="749.267578"/>
      <use xlink:href="#DejaVuSans-61" x="777.050781"/>
      <use xlink:href="#DejaVuSans-6e" x="838.330078"/>
      <use xlink:href="#DejaVuSans-63" x="901.708984"/>
      <use xlink:href="#DejaVuSans-65" x="956.689453"/>
      <use xlink:href="#DejaVuSans-20" x="1018.212891"/>
      <use xlink:href="#DejaVuSans-65" x="1050"/>
      <use xlink:href="#DejaVuSans-78" x="1109.773438"/>
      <use xlink:href="#DejaVuSans-70" x="1168.953125"/>
      <use xlink:href="#DejaVuSans-6c" x="1232.429688"/>
      <use xlink:href="#DejaVuSans-61" x="1260.212891"/>
      <use xlink:href="#DejaVuSans-69" x="1321.492188"/>
      <use xlink:href="#DejaVuSans-6e" x="1349.275391"/>
      <use xlink:href="#DejaVuSans-65" x="1412.654297"/>
      <use xlink:href="#DejaVuSans-64" x="1474.177734"/>
      <use xlink:href="#DejaVuSans-20" x="1537.654297"/>
      <use xlink:href="#DejaVuSans-28" x="1569.441406"/>
      <use xlink:href="#DejaVuSans-25" x="1608.455078"/>
      <use xlink:href="#DejaVuSans-29" x="1703.474609"/>
     </g>
    </g>
   </g>
   <g id="line2d_44">
    <path d="M 908.797097 286.918125 
L 909.872967 222.411197 
L 910.948837 185.785441 
L 913.100578 145.736917 
L 914.176448 133.139432 
L 915.252318 123.298889 
L 917.404058 106.85508 
L 918.479928 100.522021 
L 919.555798 95.571454 
L 920.631668 91.203898 
L 922.783408 84.237125 
L 923.859278 81.082385 
L 924.935148 78.330973 
L 927.086888 73.835578 
L 928.162758 71.813436 
L 930.314498 68.327201 
L 933.542108 63.725474 
L 936.769719 60.209795 
L 941.073199 56.430199 
L 944.300809 54.027339 
L 946.452549 52.683331 
L 949.680159 50.956644 
L 952.907769 49.44001 
L 957.211249 47.70934 
L 961.51473 46.245231 
L 966.89408 44.647014 
L 971.19756 43.604849 
L 977.65278 42.268759 
L 984.108001 41.174913 
L 992.714961 39.969737 
L 1001.321921 39.017807 
L 1011.004752 38.160832 
L 1022.839322 37.358937 
L 1036.825633 36.644198 
L 1052.963684 36.04667 
L 1072.329345 35.552471 
L 1095.998486 35.162749 
L 1123.971107 34.918125 
L 1129.350457 34.918125 
L 1129.350457 34.918125 
" clip-path="url(#pfa85587b81)" style="fill: none; stroke: #800080; stroke-width: 2.5; stroke-linecap: square"/>
   </g>
   <g id="line2d_45">
    <path d="M 897.769429 160.918125 
L 1140.378125 160.918125 
" clip-path="url(#pfa85587b81)" style="fill: none; stroke: #d3d3d3; stroke-width: 0.25; stroke-linecap: square"/>
   </g>
   <g id="line2d_46">
    <path d="M 913.100578 299.518125 
L 913.100578 22.318125 
" clip-path="url(#pfa85587b81)" style="fill: none; stroke-dasharray: 2,3.3; stroke-dashoffset: 0; stroke: #1f77b4; stroke-width: 2"/>
   </g>
   <g id="line2d_47">
    <path d="M 897.769429 110.518125 
L 1140.378125 110.518125 
" clip-path="url(#pfa85587b81)" style="fill: none; stroke: #d3d3d3; stroke-width: 0.25; stroke-linecap: square"/>
   </g>
   <g id="line2d_48">
    <path d="M 917.404058 299.518125 
L 917.404058 22.318125 
" clip-path="url(#pfa85587b81)" style="fill: none; stroke-dasharray: 2,3.3; stroke-dashoffset: 0; stroke: #ff7f0e; stroke-width: 2"/>
   </g>
   <g id="line2d_49">
    <path d="M 897.769429 60.118125 
L 1140.378125 60.118125 
" clip-path="url(#pfa85587b81)" style="fill: none; stroke: #d3d3d3; stroke-width: 0.25; stroke-linecap: square"/>
   </g>
   <g id="line2d_50">
    <path d="M 937.845589 299.518125 
L 937.845589 22.318125 
" clip-path="url(#pfa85587b81)" style="fill: none; stroke-dasharray: 2,3.3; stroke-dashoffset: 0; stroke: #2ca02c; stroke-width: 2"/>
   </g>
   <g id="patch_27">
    <path d="M 897.769429 299.518125 
L 1140.378125 299.518125 
" style="fill: none; stroke: #000000; stroke-width: 0.8; stroke-linejoin: miter; stroke-linecap: square"/>
   </g>
   <g id="text_52">
    <g id="patch_28">
     <path d="M 908.797097 164.443428 
L 917.628247 164.443428 
Q 919.710247 164.443428 919.710247 162.361428 
L 919.710247 155.644809 
Q 919.710247 153.562809 917.628247 153.562809 
L 908.797097 153.562809 
Q 906.715097 153.562809 906.715097 155.644809 
L 906.715097 162.361428 
Q 906.715097 164.443428 908.797097 164.443428 
z
" style="fill: #ffffff; opacity: 0.8"/>
    </g>
    <!-- 50 -->
    <g transform="translate(908.797097 160.918125)scale(0.0694 -0.0694)">
     <use xlink:href="#DejaVuSans-35"/>
     <use xlink:href="#DejaVuSans-30" x="63.623047"/>
    </g>
   </g>
   <g id="text_53">
    <g id="patch_29">
     <path d="M 920.881161 225.122264 
L 920.881161 160.987158 
Q 920.881161 159.250158 919.144161 159.250158 
L 907.056994 159.250158 
Q 905.319994 159.250158 905.319994 160.987158 
L 905.319994 225.122264 
Q 905.319994 226.859264 907.056994 226.859264 
L 919.144161 226.859264 
Q 920.881161 226.859264 920.881161 225.122264 
z
" style="fill: #ffffff; opacity: 0.8"/>
    </g>
    <!-- 4 components explain -->
    <g transform="translate(911.456489 225.122264)rotate(-90)scale(0.0579 -0.0579)">
     <use xlink:href="#DejaVuSans-34"/>
     <use xlink:href="#DejaVuSans-20" x="63.623047"/>
     <use xlink:href="#DejaVuSans-63" x="95.410156"/>
     <use xlink:href="#DejaVuSans-6f" x="150.390625"/>
     <use xlink:href="#DejaVuSans-6d" x="211.572266"/>
     <use xlink:href="#DejaVuSans-70" x="308.984375"/>
     <use xlink:href="#DejaVuSans-6f" x="372.460938"/>
     <use xlink:href="#DejaVuSans-6e" x="433.642578"/>
     <use xlink:href="#DejaVuSans-65" x="497.021484"/>
     <use xlink:href="#DejaVuSans-6e" x="558.544922"/>
     <use xlink:href="#DejaVuSans-74" x="621.923828"/>
     <use xlink:href="#DejaVuSans-73" x="661.132812"/>
     <use xlink:href="#DejaVuSans-20" x="713.232422"/>
     <use xlink:href="#DejaVuSans-65" x="745.019531"/>
     <use xlink:href="#DejaVuSans-78" x="804.792969"/>
     <use xlink:href="#DejaVuSans-70" x="863.972656"/>
     <use xlink:href="#DejaVuSans-6c" x="927.449219"/>
     <use xlink:href="#DejaVuSans-61" x="955.232422"/>
     <use xlink:href="#DejaVuSans-69" x="1016.511719"/>
     <use xlink:href="#DejaVuSans-6e" x="1044.294922"/>
    </g>
    <!-- 50% of variance -->
    <g transform="translate(917.940022 216.583823)rotate(-90)scale(0.0579 -0.0579)">
     <use xlink:href="#DejaVuSans-35"/>
     <use xlink:href="#DejaVuSans-30" x="63.623047"/>
     <use xlink:href="#DejaVuSans-25" x="127.246094"/>
     <use xlink:href="#DejaVuSans-20" x="222.265625"/>
     <use xlink:href="#DejaVuSans-6f" x="254.052734"/>
     <use xlink:href="#DejaVuSans-66" x="315.234375"/>
     <use xlink:href="#DejaVuSans-20" x="350.439453"/>
     <use xlink:href="#DejaVuSans-76" x="382.226562"/>
     <use xlink:href="#DejaVuSans-61" x="441.40625"/>
     <use xlink:href="#DejaVuSans-72" x="502.685547"/>
     <use xlink:href="#DejaVuSans-69" x="543.798828"/>
     <use xlink:href="#DejaVuSans-61" x="571.582031"/>
     <use xlink:href="#DejaVuSans-6e" x="632.861328"/>
     <use xlink:href="#DejaVuSans-63" x="696.240234"/>
     <use xlink:href="#DejaVuSans-65" x="751.220703"/>
    </g>
   </g>
   <g id="text_54">
    <g id="patch_30">
     <path d="M 908.797097 114.043428 
L 917.628247 114.043428 
Q 919.710247 114.043428 919.710247 111.961428 
L 919.710247 105.244809 
Q 919.710247 103.162809 917.628247 103.162809 
L 908.797097 103.162809 
Q 906.715097 103.162809 906.715097 105.244809 
L 906.715097 111.961428 
Q 906.715097 114.043428 908.797097 114.043428 
z
" style="fill: #ffffff; opacity: 0.8"/>
    </g>
    <!-- 70 -->
    <g transform="translate(908.797097 110.518125)scale(0.0694 -0.0694)">
     <use xlink:href="#DejaVuSans-37"/>
     <use xlink:href="#DejaVuSans-30" x="63.623047"/>
    </g>
   </g>
   <g id="text_55">
    <g id="patch_31">
     <path d="M 925.184642 225.122264 
L 925.184642 160.987158 
Q 925.184642 159.250158 923.447642 159.250158 
L 911.360474 159.250158 
Q 909.623474 159.250158 909.623474 160.987158 
L 909.623474 225.122264 
Q 909.623474 226.859264 911.360474 226.859264 
L 923.447642 226.859264 
Q 925.184642 226.859264 925.184642 225.122264 
z
" style="fill: #ffffff; opacity: 0.8"/>
    </g>
    <!-- 8 components explain -->
    <g transform="translate(915.759969 225.122264)rotate(-90)scale(0.0579 -0.0579)">
     <use xlink:href="#DejaVuSans-38"/>
     <use xlink:href="#DejaVuSans-20" x="63.623047"/>
     <use xlink:href="#DejaVuSans-63" x="95.410156"/>
     <use xlink:href="#DejaVuSans-6f" x="150.390625"/>
     <use xlink:href="#DejaVuSans-6d" x="211.572266"/>
     <use xlink:href="#DejaVuSans-70" x="308.984375"/>
     <use xlink:href="#DejaVuSans-6f" x="372.460938"/>
     <use xlink:href="#DejaVuSans-6e" x="433.642578"/>
     <use xlink:href="#DejaVuSans-65" x="497.021484"/>
     <use xlink:href="#DejaVuSans-6e" x="558.544922"/>
     <use xlink:href="#DejaVuSans-74" x="621.923828"/>
     <use xlink:href="#DejaVuSans-73" x="661.132812"/>
     <use xlink:href="#DejaVuSans-20" x="713.232422"/>
     <use xlink:href="#DejaVuSans-65" x="745.019531"/>
     <use xlink:href="#DejaVuSans-78" x="804.792969"/>
     <use xlink:href="#DejaVuSans-70" x="863.972656"/>
     <use xlink:href="#DejaVuSans-6c" x="927.449219"/>
     <use xlink:href="#DejaVuSans-61" x="955.232422"/>
     <use xlink:href="#DejaVuSans-69" x="1016.511719"/>
     <use xlink:href="#DejaVuSans-6e" x="1044.294922"/>
    </g>
    <!-- 70% of variance -->
    <g transform="translate(922.243503 216.583823)rotate(-90)scale(0.0579 -0.0579)">
     <use xlink:href="#DejaVuSans-37"/>
     <use xlink:href="#DejaVuSans-30" x="63.623047"/>
     <use xlink:href="#DejaVuSans-25" x="127.246094"/>
     <use xlink:href="#DejaVuSans-20" x="222.265625"/>
     <use xlink:href="#DejaVuSans-6f" x="254.052734"/>
     <use xlink:href="#DejaVuSans-66" x="315.234375"/>
     <use xlink:href="#DejaVuSans-20" x="350.439453"/>
     <use xlink:href="#DejaVuSans-76" x="382.226562"/>
     <use xlink:href="#DejaVuSans-61" x="441.40625"/>
     <use xlink:href="#DejaVuSans-72" x="502.685547"/>
     <use xlink:href="#DejaVuSans-69" x="543.798828"/>
     <use xlink:href="#DejaVuSans-61" x="571.582031"/>
     <use xlink:href="#DejaVuSans-6e" x="632.861328"/>
     <use xlink:href="#DejaVuSans-63" x="696.240234"/>
     <use xlink:href="#DejaVuSans-65" x="751.220703"/>
    </g>
   </g>
   <g id="text_56">
    <g id="patch_32">
     <path d="M 908.797097 63.643428 
L 917.628247 63.643428 
Q 919.710247 63.643428 919.710247 61.561428 
L 919.710247 54.844809 
Q 919.710247 52.762809 917.628247 52.762809 
L 908.797097 52.762809 
Q 906.715097 52.762809 906.715097 54.844809 
L 906.715097 61.561428 
Q 906.715097 63.643428 908.797097 63.643428 
z
" style="fill: #ffffff; opacity: 0.8"/>
    </g>
    <!-- 90 -->
    <g transform="translate(908.797097 60.118125)scale(0.0694 -0.0694)">
     <use xlink:href="#DejaVuSans-39"/>
     <use xlink:href="#DejaVuSans-30" x="63.623047"/>
    </g>
   </g>
   <g id="text_57">
    <g id="patch_33">
     <path d="M 945.626173 225.122264 
L 945.626173 157.30327 
Q 945.626173 155.56627 943.889173 155.56627 
L 931.802005 155.56627 
Q 930.065005 155.56627 930.065005 157.30327 
L 930.065005 225.122264 
Q 930.065005 226.859264 931.802005 226.859264 
L 943.889173 226.859264 
Q 945.626173 226.859264 945.626173 225.122264 
z
" style="fill: #ffffff; opacity: 0.8"/>
    </g>
    <!-- 27 components explain -->
    <g transform="translate(936.2015 225.122264)rotate(-90)scale(0.0579 -0.0579)">
     <use xlink:href="#DejaVuSans-32"/>
     <use xlink:href="#DejaVuSans-37" x="63.623047"/>
     <use xlink:href="#DejaVuSans-20" x="127.246094"/>
     <use xlink:href="#DejaVuSans-63" x="159.033203"/>
     <use xlink:href="#DejaVuSans-6f" x="214.013672"/>
     <use xlink:href="#DejaVuSans-6d" x="275.195312"/>
     <use xlink:href="#DejaVuSans-70" x="372.607422"/>
     <use xlink:href="#DejaVuSans-6f" x="436.083984"/>
     <use xlink:href="#DejaVuSans-6e" x="497.265625"/>
     <use xlink:href="#DejaVuSans-65" x="560.644531"/>
     <use xlink:href="#DejaVuSans-6e" x="622.167969"/>
     <use xlink:href="#DejaVuSans-74" x="685.546875"/>
     <use xlink:href="#DejaVuSans-73" x="724.755859"/>
     <use xlink:href="#DejaVuSans-20" x="776.855469"/>
     <use xlink:href="#DejaVuSans-65" x="808.642578"/>
     <use xlink:href="#DejaVuSans-78" x="868.416016"/>
     <use xlink:href="#DejaVuSans-70" x="927.595703"/>
     <use xlink:href="#DejaVuSans-6c" x="991.072266"/>
     <use xlink:href="#DejaVuSans-61" x="1018.855469"/>
     <use xlink:href="#DejaVuSans-69" x="1080.134766"/>
     <use xlink:href="#DejaVuSans-6e" x="1107.917969"/>
    </g>
    <!-- 90% of variance -->
    <g transform="translate(942.685033 214.74188)rotate(-90)scale(0.0579 -0.0579)">
     <use xlink:href="#DejaVuSans-39"/>
     <use xlink:href="#DejaVuSans-30" x="63.623047"/>
     <use xlink:href="#DejaVuSans-25" x="127.246094"/>
     <use xlink:href="#DejaVuSans-20" x="222.265625"/>
     <use xlink:href="#DejaVuSans-6f" x="254.052734"/>
     <use xlink:href="#DejaVuSans-66" x="315.234375"/>
     <use xlink:href="#DejaVuSans-20" x="350.439453"/>
     <use xlink:href="#DejaVuSans-76" x="382.226562"/>
     <use xlink:href="#DejaVuSans-61" x="441.40625"/>
     <use xlink:href="#DejaVuSans-72" x="502.685547"/>
     <use xlink:href="#DejaVuSans-69" x="543.798828"/>
     <use xlink:href="#DejaVuSans-61" x="571.582031"/>
     <use xlink:href="#DejaVuSans-6e" x="632.861328"/>
     <use xlink:href="#DejaVuSans-63" x="696.240234"/>
     <use xlink:href="#DejaVuSans-65" x="751.220703"/>
    </g>
   </g>
   <g id="text_58">
    <!-- tCompCor -->
    <g transform="translate(988.879715 16.318125)scale(0.12 -0.12)">
     <use xlink:href="#DejaVuSans-74"/>
     <use xlink:href="#DejaVuSans-43" x="39.208984"/>
     <use xlink:href="#DejaVuSans-6f" x="109.033203"/>
     <use xlink:href="#DejaVuSans-6d" x="170.214844"/>
     <use xlink:href="#DejaVuSans-70" x="267.626953"/>
     <use xlink:href="#DejaVuSans-43" x="331.103516"/>
     <use xlink:href="#DejaVuSans-6f" x="400.927734"/>
     <use xlink:href="#DejaVuSans-72" x="462.109375"/>
    </g>
   </g>
  </g>
 </g>
 <defs>
  <clipPath id="p590071e708">
   <rect x="24.378125" y="22.318125" width="242.608696" height="277.2"/>
  </clipPath>
  <clipPath id="p07f619ecf0">
   <rect x="315.50856" y="22.318125" width="242.608696" height="277.2"/>
  </clipPath>
  <clipPath id="pae4065677b">
   <rect x="606.638995" y="22.318125" width="242.608696" height="277.2"/>
  </clipPath>
  <clipPath id="pfa85587b81">
   <rect x="897.769429" y="22.318125" width="242.608696" height="277.2"/>
  </clipPath>
 </defs>
</svg>
